<svg width="25" height="24" viewBox="0 0 25 24" fill="none" xmlns="http://www.w3.org/2000/svg">
<path d="M10.5557 18C12.4017 18 14.0987 17.365 15.4527 16.312L19.8487 20.708L21.2627 19.294L16.8667 14.898C17.9207 13.543 18.5557 11.846 18.5557 10C18.5557 5.589 14.9667 2 10.5557 2C6.14466 2 2.55566 5.589 2.55566 10C2.55566 14.411 6.14466 18 10.5557 18ZM10.5557 4C13.8647 4 16.5557 6.691 16.5557 10C16.5557 13.309 13.8647 16 10.5557 16C7.24666 16 4.55566 13.309 4.55566 10C4.55566 6.691 7.24666 4 10.5557 4Z" fill="white"/>
<path d="M11.9677 8.58599C12.3467 8.96599 12.5557 9.46799 12.5557 9.99999H14.5557C14.5557 8.93499 14.1397 7.93099 13.3817 7.17199C11.8677 5.65999 9.24268 5.65999 7.72968 7.17199L9.14168 8.58799C9.90168 7.82999 11.2117 7.83199 11.9677 8.58599Z" fill="white"/>
</svg>
