<svg width="141" height="30" viewBox="0 0 141 30" fill="none" xmlns="http://www.w3.org/2000/svg">
<path fill-rule="evenodd" clip-rule="evenodd" d="M7.05677 9.21003V11.0714H0.0988159V1.44437H2.44357V9.21003H7.05677Z" fill="#87A2B1"/>
<path fill-rule="evenodd" clip-rule="evenodd" d="M11.0071 9.62653C11.2269 9.62653 11.438 9.62311 11.6377 9.61306C11.8387 9.60393 11.9995 9.59001 12.1192 9.57129V8.00117C12.0289 7.98291 11.894 7.96442 11.7138 7.94661C11.534 7.92743 11.3671 7.91762 11.218 7.91762C11.0071 7.91762 10.8096 7.93017 10.6234 7.95346C10.4392 7.9756 10.2757 8.02034 10.1347 8.08472C9.99448 8.14887 9.8851 8.23767 9.80559 8.3493C9.72534 8.46024 9.68435 8.59835 9.68435 8.765C9.68435 9.08916 9.80263 9.3147 10.0379 9.43865C10.2725 9.56489 10.596 9.62653 11.0071 9.62653ZM10.8271 3.56903C11.4884 3.56903 12.0392 3.63888 12.4795 3.77699C12.9208 3.91693 13.2741 4.11622 13.539 4.37463C13.8055 4.6335 13.9929 4.94967 14.1028 5.31972C14.2131 5.69045 14.2679 6.10272 14.2679 6.55517V10.8635C13.9474 10.9281 13.5013 11.0048 12.9311 11.0923C12.3598 11.1795 11.6686 11.2244 10.8565 11.2244C10.3459 11.2244 9.88265 11.1831 9.46634 11.0996C9.05053 11.016 8.6925 10.8795 8.39175 10.6889C8.09199 10.5008 7.86112 10.2522 7.70087 9.94629C7.54111 9.64039 7.45963 9.26532 7.45963 8.82132C7.45963 8.39466 7.55321 8.03329 7.7384 7.73698C7.92383 7.44067 8.17174 7.20509 8.48261 7.02863C8.79299 6.85308 9.1488 6.72524 9.5498 6.64649C9.95055 6.56773 10.3664 6.52778 10.7963 6.52778C11.0869 6.52778 11.3449 6.54102 11.5713 6.56316C11.7963 6.5869 11.9783 6.61658 12.1193 6.65379V6.45907C12.1193 6.10729 12.0042 5.82513 11.7738 5.611C11.5429 5.39893 11.1422 5.29255 10.5706 5.29255C10.1908 5.29255 9.81475 5.31766 9.44363 5.36903C9.073 5.41925 8.75324 5.49116 8.48261 5.5827L8.19717 3.91693C8.32705 3.87949 8.48953 3.84023 8.68509 3.79891C8.88065 3.75576 9.09325 3.72015 9.32412 3.68819C9.55474 3.65486 9.79796 3.62679 10.0525 3.60373C10.3083 3.58044 10.5659 3.56903 10.8271 3.56903Z" fill="#87A2B1"/>
<path fill-rule="evenodd" clip-rule="evenodd" d="M20.6265 7.19501C20.6265 6.52798 20.5339 6.05635 20.3487 5.77853C20.1635 5.5014 19.845 5.36192 19.3946 5.36192C19.2544 5.36192 19.1085 5.36922 18.9588 5.38269C18.8087 5.39639 18.6635 5.41237 18.5235 5.43177V11.0715H16.2839V4.01415C16.4743 3.96872 16.6965 3.91827 16.9521 3.86782C17.2077 3.8176 17.4783 3.77126 17.7642 3.72857C18.0504 3.68839 18.3418 3.65529 18.643 3.632C18.9435 3.60872 19.2386 3.59753 19.5309 3.59753C20.1008 3.59753 20.565 3.66396 20.9203 3.79933C21.2757 3.93242 21.569 4.09359 21.7991 4.27872C22.1196 4.06597 22.4878 3.89818 22.9029 3.77742C23.3194 3.6578 23.7029 3.59753 24.0535 3.59753C24.6844 3.59753 25.2029 3.67857 25.6081 3.84043C26.0136 4.00319 26.3378 4.23193 26.5778 4.52801C26.8178 4.82432 26.9825 5.17747 27.0733 5.58289C27.165 5.99266 27.2092 6.44625 27.2092 6.94527V11.0715H24.9701V7.19501C24.9701 6.52798 24.8772 6.05635 24.6918 5.77853C24.5066 5.5014 24.1881 5.36192 23.7377 5.36192C23.6175 5.36192 23.4488 5.38931 23.2345 5.44478C23.0194 5.5014 22.8406 5.56965 22.7006 5.6532C22.7705 5.8671 22.8147 6.09173 22.8364 6.32686C22.856 6.56336 22.8663 6.81515 22.8663 7.0843V11.0715H20.6265V7.19501Z" fill="#4F667C"/>
<path fill-rule="evenodd" clip-rule="evenodd" d="M33.5205 6.68106C33.5104 6.50506 33.4778 6.3343 33.4227 6.1672C33.3671 5.99987 33.2832 5.85263 33.1671 5.72205C33.0516 5.59376 32.9061 5.48601 32.7318 5.4036C32.5553 5.32005 32.3377 5.27828 32.0777 5.27828C31.8273 5.27828 31.6123 5.318 31.4325 5.3963C31.2505 5.4762 31.1009 5.57961 30.9814 5.70904C30.8604 5.83893 30.7678 5.98892 30.7029 6.1599C30.6382 6.33179 30.5905 6.50506 30.5597 6.68106H33.5205ZM28.2607 7.47405C28.2607 6.82505 28.3682 6.258 28.5845 5.77199C28.7993 5.28438 29.082 4.88124 29.4324 4.55616C29.7832 4.23178 30.1862 3.98592 30.6423 3.81859C31.0983 3.65217 31.566 3.56931 32.047 3.56931C33.1698 3.56931 34.0564 3.88616 34.7071 4.52078C35.3589 5.1554 35.6844 6.09044 35.6844 7.32019C35.6844 7.44095 35.6804 7.57381 35.6691 7.71694C35.6592 7.85939 35.6491 7.98791 35.6399 8.09863H30.5596C30.6102 8.52483 30.8253 8.86337 31.2065 9.11242C31.5865 9.3633 32.0971 9.4884 32.7391 9.4884C33.1498 9.4884 33.5525 9.45347 33.9485 9.38339C34.3444 9.31491 34.6673 9.22862 34.9179 9.12635L35.2184 10.8074C35.0977 10.8638 34.9382 10.9179 34.7377 10.9745C34.5372 11.0298 34.3145 11.0784 34.0688 11.1199C33.8234 11.1619 33.5611 11.1964 33.2799 11.2247C32.9991 11.2528 32.7191 11.2658 32.4384 11.2658C31.7268 11.2658 31.1082 11.1692 30.583 10.9745C30.0576 10.7796 29.6205 10.5143 29.2761 10.1753C28.9292 9.8379 28.6746 9.43704 28.5089 8.97454C28.3437 8.51113 28.2607 8.01119 28.2607 7.47405Z" fill="#4F667C"/>
<path fill-rule="evenodd" clip-rule="evenodd" d="M36.8107 4.01415C37.1922 3.91096 37.6831 3.8176 38.2838 3.72857C38.8846 3.64182 39.5165 3.59753 40.1775 3.59753C40.8488 3.59753 41.4074 3.67857 41.8533 3.84042C42.299 4.00319 42.6526 4.23193 42.9126 4.52801C43.1728 4.82432 43.359 5.17747 43.4679 5.58312C43.5795 5.99266 43.6341 6.44625 43.6341 6.94527V11.0717H41.3948V7.19501C41.3948 6.52797 41.2995 6.05635 41.1083 5.77853C40.9187 5.5014 40.5627 5.36192 40.0424 5.36192C39.8821 5.36192 39.7115 5.36922 39.5313 5.38269C39.3515 5.39639 39.19 5.41237 39.0505 5.43177V11.0717H36.8107V4.01415Z" fill="#4F667C"/>
<path fill-rule="evenodd" clip-rule="evenodd" d="M44.9862 1.94398L47.2253 1.61069V3.76406H49.915V5.48598H47.2253V8.0578C47.2253 8.49267 47.3077 8.83989 47.4739 9.09853C47.6391 9.35877 47.9724 9.48844 48.4729 9.48844C48.7142 9.48844 48.9611 9.4672 49.2167 9.4252C49.4722 9.38343 49.7056 9.32613 49.915 9.25057L50.2315 10.8638C49.9601 10.9656 49.6609 11.0535 49.329 11.1277C48.9991 11.2012 48.5927 11.238 48.1124 11.238C47.5013 11.238 46.9944 11.162 46.5936 11.0088C46.1929 10.8558 45.8731 10.6435 45.6329 10.371C45.3931 10.0966 45.2255 9.76557 45.1297 9.37749C45.0341 8.98759 44.9862 8.55728 44.9862 8.08496V1.94398Z" fill="#4F667C"/>
<path fill-rule="evenodd" clip-rule="evenodd" d="M55.7148 6.68106C55.7055 6.50506 55.6724 6.3343 55.6178 6.1672C55.5632 5.99987 55.4783 5.85263 55.3632 5.72205C55.2474 5.59376 55.1017 5.48601 54.9277 5.4036C54.7506 5.32005 54.5333 5.27828 54.2726 5.27828C54.0232 5.27828 53.8079 5.318 53.6269 5.3963C53.4466 5.4762 53.2958 5.57961 53.1763 5.70904C53.0553 5.83893 52.9632 5.98892 52.8982 6.1599C52.833 6.33179 52.7851 6.50506 52.756 6.68106H55.7148ZM50.456 7.47405C50.456 6.82505 50.5639 6.258 50.7795 5.77199C50.9938 5.28438 51.2778 4.88124 51.6282 4.55616C51.9793 4.23178 52.383 3.98592 52.8371 3.81859C53.2946 3.65217 53.7628 3.56931 54.244 3.56931C55.3638 3.56931 56.2515 3.88616 56.9026 4.52078C57.555 5.1554 57.8799 6.09044 57.8799 7.32019C57.8799 7.44095 57.8747 7.57381 57.8641 7.71694C57.8547 7.85939 57.8449 7.98791 57.8352 8.09863H52.7561C52.8052 8.52483 53.0205 8.86337 53.4023 9.11242C53.7828 9.3633 54.2934 9.4884 54.9357 9.4884C55.3446 9.4884 55.7495 9.45347 56.1446 9.38339C56.5394 9.31491 56.8634 9.22862 57.1128 9.12635L57.414 10.8074C57.2942 10.8638 57.134 10.9179 56.9332 10.9745C56.733 11.0298 56.5103 11.0784 56.2643 11.1199C56.0194 11.1619 55.7562 11.1964 55.4749 11.2247C55.1954 11.2528 54.9137 11.2658 54.6337 11.2658C53.9223 11.2658 53.3038 11.1692 52.7786 10.9745C52.2521 10.7796 51.8171 10.5143 51.4701 10.1753C51.1257 9.8379 50.8701 9.43704 50.7039 8.97454C50.5393 8.51113 50.456 8.01119 50.456 7.47405Z" fill="#4F667C"/>
<path fill-rule="evenodd" clip-rule="evenodd" d="M64.367 6.68106C64.3576 6.50506 64.3245 6.3343 64.27 6.1672C64.2149 5.99987 64.1297 5.85263 64.0144 5.72205C63.8993 5.59376 63.7539 5.48601 63.5783 5.4036C63.4028 5.32005 63.186 5.27828 62.9255 5.27828C62.6749 5.27828 62.4586 5.318 62.2791 5.3963C62.0983 5.4762 61.9479 5.57961 61.8284 5.70904C61.7087 5.83893 61.6148 5.98892 61.5489 6.1599C61.4847 6.33179 61.4373 6.50506 61.4074 6.68106H64.367ZM59.1082 7.47405C59.1082 6.82505 59.2151 6.258 59.4314 5.77199C59.6459 5.28438 59.9294 4.88124 60.2798 4.55616C60.6302 4.23178 61.0336 3.98592 61.4897 3.81859C61.9453 3.65217 62.4149 3.56931 62.8957 3.56931C64.0167 3.56931 64.9043 3.88616 65.5547 4.52078C66.2064 5.1554 66.5308 6.09044 66.5308 7.32019C66.5308 7.44095 66.5261 7.57381 66.5175 7.71694C66.5071 7.85939 66.4962 7.98791 66.4869 8.09863H61.4075C61.4573 8.52483 61.6714 8.86337 62.0537 9.11242C62.4342 9.3633 62.9453 9.4884 63.5865 9.4884C63.9959 9.4884 64.4004 9.45347 64.7964 9.38339C65.1915 9.31491 65.5147 9.22862 65.7654 9.12635L66.0661 10.8074C65.9459 10.8638 65.7849 10.9179 65.5839 10.9745C65.3844 11.0298 65.1604 11.0784 64.9157 11.1199C64.6705 11.1619 64.4078 11.1964 64.1278 11.2247C63.847 11.2528 63.5658 11.2658 63.2858 11.2658C62.5744 11.2658 61.9561 11.1692 61.4299 10.9745C60.9042 10.7796 60.4677 10.5143 60.1223 10.1753C59.7763 9.8379 59.5217 9.43704 59.3561 8.97454C59.1899 8.51113 59.1082 8.01119 59.1082 7.47405Z" fill="#87A2B1"/>
<path fill-rule="evenodd" clip-rule="evenodd" d="M69.928 9.58484C70.3384 9.58484 70.6295 9.54786 70.7999 9.47321C70.9696 9.39948 71.0545 9.25543 71.0545 9.04313C71.0545 8.87626 70.9449 8.73038 70.7241 8.60643C70.5039 8.48087 70.1681 8.33934 69.7174 8.18205C69.3661 8.06152 69.049 7.9362 68.7631 7.80722C68.4776 7.67755 68.2352 7.52164 68.0337 7.34107C67.8337 7.1605 67.6793 6.94523 67.5682 6.69412C67.4579 6.44598 67.4033 6.14373 67.4033 5.79241C67.4033 5.10711 67.6793 4.56494 68.23 4.16659C68.7811 3.76802 69.5377 3.56918 70.4994 3.56918C70.9802 3.56918 71.4407 3.60845 71.8812 3.68812C72.3224 3.76619 72.6728 3.85134 72.9345 3.94516L72.5424 5.55568C72.2822 5.47213 71.9995 5.39908 71.6935 5.33471C71.3876 5.26942 71.0461 5.23723 70.6636 5.23723C69.9634 5.23723 69.6135 5.41643 69.6135 5.77826C69.6135 5.86181 69.6275 5.93554 69.6559 5.99969C69.6873 6.06498 69.748 6.12753 69.8374 6.18848C69.928 6.24943 70.0498 6.31312 70.2058 6.38343C70.3609 6.45328 70.5592 6.52999 70.7999 6.61445C71.2908 6.78246 71.6957 6.94888 72.0167 7.11187C72.3377 7.27578 72.5906 7.45178 72.776 7.64103C72.961 7.83096 73.0913 8.04052 73.1671 8.27108C73.2412 8.50279 73.279 8.77102 73.279 9.07486C73.279 9.79646 72.9849 10.3423 72.4 10.7123C71.8135 11.0812 70.9844 11.2657 69.9127 11.2657C69.212 11.2657 68.628 11.2111 68.1628 11.0997C67.6956 10.9879 67.3742 10.8956 67.1932 10.8217L67.5682 9.14083C67.9497 9.27872 68.3394 9.38829 68.7399 9.46682C69.1414 9.54558 69.5377 9.58484 69.928 9.58484" fill="#87A2B1"/>
<path fill-rule="evenodd" clip-rule="evenodd" d="M8.08227 21.1729C8.08227 19.9315 7.90943 19.0528 7.56448 18.5358C7.21879 18.0181 6.62816 17.7601 5.78888 17.7601C5.52739 17.7601 5.25825 17.7733 4.97824 17.7994C4.69873 17.8254 4.42786 17.8546 4.16686 17.8898V28.3866H9.15527e-05V15.252C0.354175 15.1664 0.769 15.0757 1.24506 14.9812C1.71915 14.886 2.22311 14.7997 2.75473 14.7219C3.2861 14.6443 3.83155 14.5849 4.39082 14.5409C4.94935 14.4986 5.49998 14.476 6.04074 14.476C7.10299 14.476 7.96622 14.6014 8.62747 14.8518C9.28946 15.1011 9.83441 15.3985 10.2633 15.7437C10.8601 15.3469 11.5453 15.0365 12.3189 14.8128C13.0928 14.589 13.8054 14.476 14.4587 14.476C15.6338 14.476 16.5983 14.6272 17.3529 14.9296C18.108 15.231 18.7095 15.6574 19.1576 16.2092C19.6048 16.7605 19.9117 17.4156 20.0791 18.1731C20.2478 18.9328 20.3312 19.7774 20.3312 20.7083V28.3866H16.1645V21.1729C16.1645 19.9315 15.9919 19.0528 15.6469 18.5358C15.3022 18.0181 14.7106 17.7601 13.8718 17.7601C13.6483 17.7601 13.335 17.8115 12.934 17.9151C12.5335 18.0181 12.2024 18.1479 11.9421 18.3029C12.072 18.6999 12.1555 19.1172 12.1932 19.5569C12.231 19.997 12.249 20.4657 12.249 20.9665V28.3866H8.08227V21.1729Z" fill="#4F667C"/>
<path fill-rule="evenodd" clip-rule="evenodd" d="M28.6104 25.6974C29.0198 25.6974 29.4109 25.689 29.784 25.6718C30.1576 25.6547 30.4551 25.6285 30.6791 25.5935V22.6731C30.5107 22.6384 30.2598 22.604 29.924 22.5688C29.589 22.535 29.281 22.5172 29.0013 22.5172C28.6104 22.5172 28.241 22.5389 27.8958 22.5818C27.5516 22.625 27.2484 22.7074 26.9877 22.8277C26.7259 22.9482 26.522 23.1117 26.3718 23.3189C26.2234 23.526 26.1484 23.7844 26.1484 24.0942C26.1484 24.6978 26.3676 25.1157 26.8059 25.3484C27.244 25.5812 27.8447 25.6974 28.6104 25.6974ZM28.2743 14.4241C29.5047 14.4241 30.5287 14.554 31.3504 14.8126C32.17 15.0708 32.8278 15.4424 33.3221 15.9241C33.8149 16.4076 34.1653 16.9934 34.3705 17.6832C34.5764 18.372 34.6789 19.1394 34.6789 19.9834V27.9986C34.0816 28.1196 33.2522 28.2609 32.1895 28.4246C31.127 28.5894 29.8398 28.6718 28.3304 28.6718C27.3792 28.6718 26.5167 28.5935 25.7434 28.438C24.9688 28.283 24.3036 28.0292 23.7441 27.676C23.1841 27.3229 22.7547 26.8613 22.4571 26.2926C22.1586 25.7233 22.0092 25.0252 22.0092 24.1977C22.0092 23.4051 22.1816 22.734 22.527 22.1815C22.8715 21.6293 23.3334 21.1901 23.9117 20.8632C24.4893 20.5354 25.1508 20.2987 25.8975 20.1521C26.6424 20.006 27.4163 19.9314 28.218 19.9314C28.7585 19.9314 29.2393 19.954 29.6581 19.9969C30.0776 20.0402 30.4173 20.0959 30.6791 20.1651V19.8035C30.6791 19.1479 30.4642 18.6226 30.0361 18.2254C29.6069 17.8287 28.8612 17.631 27.7978 17.631C27.0906 17.631 26.3898 17.6782 25.7007 17.7734C25.0108 17.8679 24.4152 18.0019 23.9117 18.1731L23.3796 15.0708C23.6218 15.0021 23.9248 14.9297 24.2893 14.8516C24.6525 14.7733 25.0486 14.7049 25.4775 14.6444C25.9064 14.5848 26.358 14.5325 26.8333 14.4894C27.3098 14.4462 27.7891 14.4241 28.2743 14.4241Z" fill="#4F667C"/>
<path fill-rule="evenodd" clip-rule="evenodd" d="M46.2008 18.1995C45.8272 18.1137 45.3889 18.0233 44.8857 17.9285C44.3817 17.8336 43.8417 17.7863 43.2636 17.7863C43.0019 17.7863 42.6903 17.8078 42.3268 17.8507C41.9629 17.8941 41.6876 17.9406 41.5021 17.9922V28.3866H37.3344V15.5113C38.0803 15.2695 38.9611 15.0415 39.9774 14.8267C40.994 14.6105 42.1266 14.5025 43.3757 14.5025C43.5992 14.5025 43.8696 14.5153 44.1861 14.5411C44.5029 14.5669 44.8202 14.6013 45.1373 14.6445C45.4536 14.6876 45.7704 14.7404 46.0887 14.7997C46.4055 14.8593 46.6751 14.9335 46.899 15.0193L46.2008 18.1995Z" fill="#4F667C"/>
<path fill-rule="evenodd" clip-rule="evenodd" d="M53.3591 25.6974C53.7695 25.6974 54.1606 25.689 54.534 25.6718C54.9066 25.6547 55.2043 25.6285 55.429 25.5935V22.6731C55.2616 22.6384 55.0095 22.604 54.6737 22.5688C54.3386 22.535 54.0315 22.5172 53.7507 22.5172C53.3591 22.5172 52.9907 22.5389 52.6455 22.5818C52.3006 22.625 51.9981 22.7074 51.7373 22.8277C51.4761 22.9482 51.2707 23.1117 51.122 23.3189C50.9736 23.526 50.8986 23.7844 50.8986 24.0942C50.8986 24.6978 51.1176 25.1157 51.5559 25.3484C51.9939 25.5812 52.5951 25.6974 53.3591 25.6974ZM53.0233 14.4241C54.2547 14.4241 55.2789 14.554 56.1006 14.8126C56.9197 15.0708 57.578 15.4424 58.0715 15.9241C58.5649 16.4076 58.916 16.9934 59.1207 17.6832C59.3257 18.372 59.4281 19.1394 59.4281 19.9834V27.9986C58.8308 28.1196 58.0024 28.2609 56.9384 28.4246C55.8767 28.5894 54.59 28.6718 53.0793 28.6718C52.1297 28.6718 51.2664 28.5935 50.4931 28.438C49.7188 28.283 49.0528 28.0292 48.493 27.676C47.934 27.3229 47.5051 26.8613 47.2071 26.2926C46.9083 25.7233 46.7592 25.0252 46.7592 24.1977C46.7592 23.4051 46.9313 22.734 47.277 22.1815C47.6212 21.6293 48.0834 21.1901 48.6607 20.8632C49.2387 20.5354 49.9007 20.2987 50.6462 20.1521C51.3919 20.006 52.1662 19.9314 52.9677 19.9314C53.5087 19.9314 53.9887 19.954 54.4078 19.9969C54.828 20.0402 55.167 20.0959 55.429 20.1651V19.8035C55.429 19.1479 55.2144 18.6226 54.7855 18.2254C54.3571 17.8287 53.6112 17.631 52.5484 17.631C51.8398 17.631 51.14 17.6782 50.4506 17.7734C49.7615 17.8679 49.1647 18.0019 48.6607 18.1731L48.1296 15.0708C48.3721 15.0021 48.675 14.9297 49.0392 14.8516C49.4022 14.7733 49.7988 14.7049 50.2272 14.6444C50.6566 14.5848 51.1079 14.5325 51.5835 14.4894C52.0591 14.4462 52.5393 14.4241 53.0233 14.4241Z" fill="#4F667C"/>
<path fill-rule="evenodd" clip-rule="evenodd" d="M65.7421 28.3865C64.7872 26.6634 63.8191 24.6464 62.8363 22.3359C61.8536 20.0264 60.9227 17.5103 60.0437 14.7869H64.4623C64.6492 15.4596 64.869 16.1874 65.1223 16.9711C65.3744 17.7564 65.6371 18.5487 65.9083 19.3495C66.1796 20.1522 66.4517 20.9322 66.7236 21.6908C66.995 22.4494 67.2624 23.1379 67.5248 23.7588C67.7676 23.1379 68.0296 22.4494 68.3101 21.6908C68.5908 20.9322 68.8661 20.1522 69.138 19.3495C69.4093 18.5487 69.6721 17.7564 69.9244 16.9711C70.1773 16.1874 70.3968 15.4596 70.5842 14.7869H74.8937C74.0146 17.5103 73.0847 20.0264 72.103 22.3359C71.1215 24.6464 70.1533 26.6634 69.1997 28.3865H65.7421Z" fill="#4F667C"/>
<path fill-rule="evenodd" clip-rule="evenodd" d="M75.9835 28.3866H80.1515V14.787H75.9835V28.3866ZM80.5426 10.8565C80.5426 11.5642 80.2952 12.1203 79.8016 12.5243C79.3078 12.9293 78.7256 13.1318 78.0539 13.1318C77.3828 13.1318 76.7998 12.9293 76.3062 12.5243C75.8124 12.1203 75.565 11.5642 75.565 10.8565C75.565 10.15 75.8124 9.59319 76.3062 9.18891C76.7998 8.78462 77.3828 8.58099 78.0539 8.58099C78.7256 8.58099 79.3078 8.78462 79.8016 9.18891C80.2952 9.59319 80.5426 10.15 80.5426 10.8565Z" fill="#4F667C"/>
<path fill-rule="evenodd" clip-rule="evenodd" d="M88.8194 28.6452C87.6082 28.6281 86.6243 28.5069 85.8699 28.2829C85.1151 28.0592 84.5173 27.7446 84.0802 27.3385C83.6422 26.9347 83.3432 26.4432 83.1849 25.8656C83.0266 25.2881 82.9469 24.6373 82.9469 23.9134V8.94295L87.1146 8.32339V23.1377C87.1146 23.4824 87.1418 23.7929 87.1978 24.0684C87.2541 24.3448 87.3613 24.5775 87.5201 24.7669C87.6781 24.9573 87.906 25.1109 88.2055 25.2326C88.5031 25.3525 88.9041 25.4301 89.408 25.465L88.8194 28.6452Z" fill="#4F667C"/>
<path fill-rule="evenodd" clip-rule="evenodd" d="M96.5381 28.6452C95.3262 28.6281 94.3432 28.5069 93.5879 28.2829C92.8333 28.0592 92.2352 27.7446 91.7989 27.3385C91.3602 26.9347 91.0619 26.4432 90.9036 25.8656C90.7453 25.2881 90.6663 24.6373 90.6663 23.9134V8.94295L94.8326 8.32339V23.1377C94.8326 23.4824 94.8597 23.7929 94.9165 24.0684C94.9721 24.3448 95.0795 24.5775 95.2388 24.7669C95.3968 24.9573 95.6247 25.1109 95.9237 25.2326C96.222 25.3525 96.623 25.4301 97.1262 25.465L96.5381 28.6452Z" fill="#4F667C"/>
<path fill-rule="evenodd" clip-rule="evenodd" d="M121.024 25.6195C121.788 25.6195 122.329 25.5512 122.646 25.4133C122.962 25.275 123.121 25.0079 123.121 24.6118C123.121 24.3009 122.916 24.0304 122.506 23.7969C122.096 23.5643 121.472 23.3013 120.633 23.0086C119.98 22.7849 119.388 22.5523 118.857 22.3103C118.326 22.0695 117.873 21.7805 117.5 21.4449C117.127 21.1077 116.838 20.7082 116.633 20.2421C116.429 19.7773 116.327 19.2169 116.327 18.5615C116.327 17.2865 116.838 16.2778 117.864 15.537C118.889 14.7955 120.297 14.4241 122.087 14.4241C122.982 14.4241 123.838 14.4986 124.659 14.6444C125.479 14.7905 126.132 14.9508 126.617 15.1229L125.89 18.1216C125.404 17.9666 124.879 17.8287 124.31 17.7084C123.741 17.5876 123.102 17.5276 122.395 17.5276C121.089 17.5276 120.438 17.8636 120.438 18.5359C120.438 18.6902 120.465 18.8295 120.52 18.95C120.576 19.0708 120.689 19.1861 120.856 19.2979C121.024 19.4114 121.252 19.5317 121.542 19.6618C121.831 19.7928 122.199 19.9362 122.646 20.0923C123.56 20.4044 124.314 20.7144 124.911 21.0169C125.508 21.3212 125.979 21.6499 126.324 22.0021C126.668 22.3551 126.911 22.7468 127.051 23.1764C127.19 23.6063 127.261 24.1044 127.261 24.6723C127.261 26.0146 126.715 27.0293 125.625 27.7165C124.534 28.4036 122.991 28.7492 120.996 28.7492C119.691 28.7492 118.606 28.6453 117.738 28.4381C116.872 28.2315 116.27 28.0593 115.934 27.9219L116.633 24.7926C117.342 25.0515 118.069 25.2538 118.815 25.4001C119.56 25.5476 120.297 25.6195 121.024 25.6195" fill="#4F667C"/>
<path fill-rule="evenodd" clip-rule="evenodd" d="M134.556 25.6974C134.966 25.6974 135.356 25.689 135.731 25.6718C136.103 25.6547 136.401 25.6285 136.626 25.5935V22.6731C136.458 22.6384 136.206 22.604 135.871 22.5688C135.535 22.535 135.227 22.5172 134.948 22.5172C134.556 22.5172 134.188 22.5389 133.843 22.5818C133.498 22.625 133.195 22.7074 132.934 22.8277C132.672 22.9482 132.467 23.1117 132.319 23.3189C132.17 23.526 132.094 23.7844 132.094 24.0942C132.094 24.6978 132.314 25.1157 132.752 25.3484C133.191 25.5812 133.791 25.6974 134.556 25.6974ZM134.221 14.4241C135.451 14.4241 136.476 14.554 137.297 14.8126C138.116 15.0708 138.774 15.4424 139.268 15.9241C139.762 16.4076 140.113 16.9934 140.317 17.6832C140.522 18.372 140.625 19.1394 140.625 19.9834V27.9986C140.028 28.1196 139.199 28.2609 138.136 28.4246C137.074 28.5894 135.786 28.6718 134.277 28.6718C133.326 28.6718 132.464 28.5935 131.69 28.438C130.915 28.283 130.249 28.0292 129.69 27.676C129.131 27.3229 128.701 26.8613 128.404 26.2926C128.105 25.7233 127.956 25.0252 127.956 24.1977C127.956 23.4051 128.128 22.734 128.474 22.1815C128.818 21.6293 129.281 21.1901 129.857 20.8632C130.436 20.5354 131.098 20.2987 131.843 20.1521C132.588 20.006 133.363 19.9314 134.164 19.9314C134.705 19.9314 135.185 19.954 135.605 19.9969C136.024 20.0402 136.363 20.0959 136.626 20.1651V19.8035C136.626 19.1479 136.411 18.6226 135.982 18.2254C135.554 17.8287 134.808 17.631 133.746 17.631C133.036 17.631 132.336 17.6782 131.647 17.7734C130.958 17.8679 130.361 18.0019 129.857 18.1731L129.326 15.0708C129.569 15.0021 129.872 14.9297 130.236 14.8516C130.599 14.7733 130.995 14.7049 131.424 14.6444C131.853 14.5848 132.305 14.5325 132.78 14.4894C133.255 14.4462 133.736 14.4241 134.221 14.4241Z" fill="#4F667C"/>
<path fill-rule="evenodd" clip-rule="evenodd" d="M104.23 0.990723C104.004 0.990723 103.785 1.01789 103.577 1.06948C104.37 1.88376 105.151 3.21372 105.821 5.21666C106.412 4.78247 106.791 4.11247 106.791 3.35937C106.791 2.05246 105.643 0.990723 104.23 0.990723" fill="#992A76"/>
<path fill-rule="evenodd" clip-rule="evenodd" d="M103.577 1.06946C102.478 1.33632 101.667 2.26063 101.667 3.35957C101.667 4.66694 102.817 5.72798 104.23 5.72798C104.831 5.72798 105.382 5.53737 105.821 5.21664C105.151 3.2137 104.37 1.88374 103.577 1.06946" fill="#D576AC"/>
<path fill-rule="evenodd" clip-rule="evenodd" d="M117.861 5.54251C116.276 5.47905 114.935 6.61703 114.868 8.08373C114.829 8.91239 115.207 9.66915 115.828 10.1816C117.737 8.3878 119.298 7.55047 120.449 7.30918C120.069 6.31729 119.068 5.58908 117.861 5.54251" fill="#D22724"/>
<path fill-rule="evenodd" clip-rule="evenodd" d="M120.449 7.30896C119.299 7.55025 117.737 8.38759 115.828 10.1814C116.307 10.5759 116.927 10.8254 117.617 10.8523C119.204 10.914 120.545 9.77668 120.612 8.3086C120.627 7.95888 120.569 7.62125 120.449 7.30896" fill="#F29325"/>
<path fill-rule="evenodd" clip-rule="evenodd" d="M109.683 5.15626C110.344 5.8064 110.307 6.39902 109.994 6.89233C110.049 6.91059 110.102 6.92452 110.155 6.94392C110.54 7.08774 110.911 7.2642 111.275 7.4555C113.28 6.27985 112.83 4.32006 112.712 3.92194C112.493 3.1693 112.022 2.4993 111.161 2.40342C110.193 2.29772 109.312 2.93759 109.198 3.83246C109.133 4.33924 109.331 4.81384 109.686 5.15443L109.683 5.15626Z" fill="#5567A8"/>
<path fill-rule="evenodd" clip-rule="evenodd" d="M114.317 12.6268C113.896 11.6826 113.254 10.8121 112.388 10.0175C111.536 9.23564 110.598 8.65375 109.575 8.27115C108.61 7.91275 107.628 7.73401 106.625 7.73401C106.562 7.73401 106.499 7.73469 106.437 7.73584C105.369 7.76026 104.302 7.99516 103.236 8.43963C103.216 8.44944 103.194 8.46017 103.173 8.46976L114.114 18.5137C114.124 18.4945 114.136 18.4765 114.145 18.455C114.626 17.4745 114.88 16.4934 114.907 15.5131C114.934 14.5324 114.737 13.5712 114.317 12.6268" fill="#4F667C"/>
<mask id="mask0_4010_388" style="mask-type:alpha" maskUnits="userSpaceOnUse" x="98" y="18" width="17" height="13">
<path fill-rule="evenodd" clip-rule="evenodd" d="M98.0909 18.2408H114.704V30.0001H98.0909V18.2408Z" fill="white"/>
</mask>
<g mask="url(#mask0_4010_388)">
<path fill-rule="evenodd" clip-rule="evenodd" d="M102.296 25.1652H110.761C110.761 25.1652 106.49 31.4601 102.296 25.1652ZM114.114 18.2408H98.6946C98.2941 19.4998 98.0909 20.4686 98.0909 21.6728C98.0909 22.9011 99.4425 30.0002 106.413 30.0002C113.382 30.0002 114.704 22.8674 114.704 21.639C114.704 20.4341 114.504 19.4998 114.114 18.2408Z" fill="#4F667C"/>
</g>
<path fill-rule="evenodd" clip-rule="evenodd" d="M115.284 3.51377C115.178 2.78441 115.057 2.61617 114.711 2.4146C114.262 2.15139 113.666 2.27489 113.381 2.69104C113.096 3.10788 113.23 3.65895 113.68 3.92193C114.594 4.42689 113.618 5.60619 113.607 5.62103C114.785 5.11082 115.389 4.24153 115.284 3.51377" fill="#A762A4"/>
<path fill-rule="evenodd" clip-rule="evenodd" d="M121.24 7.23597C121.002 7.22524 120.74 7.24738 120.449 7.30879C120.569 7.62108 120.627 7.9587 120.612 8.30843C120.545 9.77651 119.204 10.9138 117.617 10.8524C116.927 10.8255 116.307 10.5757 115.828 10.1812C115.793 10.2148 115.757 10.2488 115.722 10.2812C115.504 10.4897 115.292 10.6942 115.086 10.8955C115.338 11.2809 115.568 11.6735 115.749 12.0826C115.859 12.3289 115.95 12.5773 116.034 12.827C117.128 12.1616 118.359 11.5939 119.706 11.2606C123.296 10.3748 123.513 7.32454 121.24 7.23597" fill="#ED7226"/>
<path fill-rule="evenodd" clip-rule="evenodd" d="M101.831 7.51142L102.462 7.19867C102.502 7.17767 102.543 7.15849 102.599 7.13453C103.77 6.64646 104.967 6.3796 106.157 6.32253C106.152 6.30335 106.148 6.28623 106.142 6.26706C106.039 5.89793 105.931 5.54774 105.82 5.21674C105.382 5.53747 104.83 5.72809 104.23 5.72809C102.816 5.72809 101.667 4.66704 101.667 3.35967C101.667 2.26073 102.478 1.33642 103.576 1.06956C102.843 0.315089 102.096 6.10352e-05 101.419 6.10352e-05C98.8874 0.00120244 97.294 4.3915 100.717 6.64281C101.116 6.90465 101.484 7.19776 101.831 7.51142" fill="#D35E9E"/>
<path fill-rule="evenodd" clip-rule="evenodd" d="M101.772 11.3615C100.29 11.3615 99.0903 12.471 99.0903 13.84C99.0903 14.4659 99.3412 15.0382 99.7551 15.4745C100.624 14.4155 101.998 13.7322 103.545 13.7322C103.855 13.7322 104.158 13.7587 104.452 13.811C104.435 12.4557 103.241 11.3615 101.772 11.3615" fill="#ACCD6C"/>
<path fill-rule="evenodd" clip-rule="evenodd" d="M110.934 17.6111L105.771 12.8711C104.57 13.8021 103.807 15.1966 103.807 16.7578C103.807 17.0498 103.843 17.3331 103.896 17.6111H110.934Z" fill="#F29325"/>
<path fill-rule="evenodd" clip-rule="evenodd" d="M108.26 17.6112C108.075 15.6541 106.197 14.4791 106.197 14.4791C105.678 14.1561 105.087 13.9258 104.452 13.8112V13.8402C104.452 15.2087 103.253 16.3184 101.772 16.3184C100.967 16.3184 100.247 15.9917 99.7552 15.4747C99.2574 16.0817 98.9404 16.8158 98.8397 17.6112H108.26Z" fill="#38B5AA"/>
<path fill-rule="evenodd" clip-rule="evenodd" d="M103.545 13.7323C101.998 13.7323 100.624 14.4155 99.7552 15.4745C100.247 15.9916 100.968 16.3182 101.772 16.3182C103.253 16.3182 104.452 15.2086 104.452 13.8402V13.8113C104.158 13.7587 103.855 13.7323 103.545 13.7323" fill="#CEDF9A"/>
<path fill-rule="evenodd" clip-rule="evenodd" d="M104.778 13.8856C105.058 13.5076 105.391 13.1661 105.771 12.8711L104.343 11.5608C104.034 11.6455 103.754 11.7868 103.506 11.9639C104.073 12.4125 104.443 13.0686 104.452 13.8112C104.562 13.8315 104.67 13.8594 104.778 13.8856" fill="#D22724"/>
</svg>
