<svg width="190" height="32" viewBox="0 0 190 32" fill="none" xmlns="http://www.w3.org/2000/svg">
<g clip-path="url(#clip0_4071_1514)">
<path d="M80.7953 16.023C80.7953 10.881 84.6405 6.93262 89.7976 6.93262C93.1452 6.93262 96.0405 8.67724 97.3976 11.386L94.231 13.2683C93.4619 11.6615 91.8333 10.6055 89.7524 10.6055C86.7667 10.6055 84.4595 12.9011 84.4595 16.023C84.4595 19.145 86.7214 21.4405 89.7524 21.4405C91.7881 21.4405 93.4619 20.3846 94.2762 18.7777L97.4429 20.6141C95.9952 23.3229 93.1 25.1134 89.7976 25.1134C84.6405 25.1134 80.7953 21.1191 80.7953 16.023Z" fill="white"/>
<path d="M97.6691 16.023C97.6691 10.881 101.695 6.93262 106.671 6.93262C111.693 6.93262 115.674 10.881 115.674 16.023C115.674 21.1191 111.693 25.1134 106.671 25.1134C101.695 25.1134 97.6691 21.1191 97.6691 16.023ZM111.964 16.023C111.964 12.8551 109.657 10.5596 106.671 10.5596C103.686 10.5596 101.379 12.8551 101.379 16.023C101.379 19.1909 103.686 21.4864 106.671 21.4864C109.657 21.4864 111.964 19.145 111.964 16.023Z" fill="white"/>
<path d="M133.091 14.0488V24.6543H129.381V14.4161C129.381 11.7992 127.888 10.4219 125.581 10.4219C123.183 10.4219 121.238 11.891 121.238 15.3803V24.6543H117.574V7.34583C120.514 7.34583 121.238 8.21814 121.238 9.54956C122.369 7.75903 124.224 6.88672 126.531 6.88672C130.331 6.93263 133.091 9.54956 133.091 14.0488Z" fill="white"/>
<path d="M140.6 10.9728V19.2827C140.6 21.4864 142.048 21.4405 144.807 21.3028V24.6543C139.152 25.3429 136.89 23.736 136.89 19.2827V10.9728H134.131V7.34581H136.89V6.38167C136.89 4.04021 137.75 3.44337 139.469 2.84652L140.555 2.52515V7.34581H144.762V10.9269H140.6V10.9728Z" fill="white"/>
<path d="M145.938 2.38737C145.938 1.05595 146.979 0 148.29 0C149.602 0 150.643 1.05595 150.643 2.38737C150.643 3.67288 149.602 4.77475 148.29 4.77475C147.024 4.77475 145.938 3.67288 145.938 2.38737ZM146.481 7.34577H150.145V24.6083H146.481V7.34577Z" fill="white"/>
<path d="M169.01 7.34584C167.924 7.34584 167.291 7.62131 166.929 8.03451C166.567 8.49362 166.476 9.13637 166.476 9.87095C165.164 7.9886 163.174 6.84082 160.55 6.84082C155.755 6.84082 151.955 10.8351 151.955 15.7476C151.955 20.706 155.755 24.6543 160.55 24.6543C163.174 24.6543 165.164 23.5065 166.476 21.6242V23.8738C166.476 26.9039 164.576 28.6486 161.41 28.6486C158.424 28.6486 157.202 27.4549 156.433 25.9857L153.764 28.6945C155.302 30.8982 157.971 32.046 161.319 32.046C165.798 32.046 170.095 29.475 170.095 23.8738V7.34584H169.01ZM161.093 21.2569C157.971 21.2569 155.664 18.9613 155.664 15.8394C155.664 12.7174 157.971 10.4219 161.093 10.4219C164.214 10.4219 166.521 12.7174 166.521 15.8394C166.521 18.9613 164.169 21.2569 161.093 21.2569Z" fill="white"/>
<path d="M171.995 16.023C171.995 10.881 176.021 6.93262 180.998 6.93262C186.019 6.93262 190 10.881 190 16.023C190 21.1191 186.019 25.1134 180.998 25.1134C176.021 25.1134 171.995 21.1191 171.995 16.023ZM186.336 16.023C186.336 12.8551 184.029 10.5596 181.043 10.5596C178.057 10.5596 175.75 12.8551 175.75 16.023C175.75 19.1909 178.057 21.4864 181.043 21.4864C183.983 21.4864 186.336 19.145 186.336 16.023Z" fill="white"/>
<path d="M78.3071 14.3701V25.0674H74.6428V14.5996C74.6428 12.1664 73.3309 10.8349 71.3405 10.8349C69.169 10.8349 67.6309 12.2582 67.6309 15.3801V25.0674H63.9667V14.5996C63.9667 12.1664 62.7905 10.8349 60.7548 10.8349C58.6738 10.8349 56.9548 12.2582 56.9548 15.3801V25.0674H53.2905V7.80481C55.8238 7.80481 56.9548 8.35575 56.9548 9.87081C58.0405 8.1721 59.7143 7.3457 61.8405 7.3457C64.0571 7.3457 65.6857 8.35575 66.6809 10.0545C67.8119 8.26392 69.6214 7.3457 71.8833 7.3457C75.7286 7.3457 78.3071 10.0545 78.3071 14.3701Z" fill="white"/>
<path d="M47.4095 22.4505C47.4095 23.4147 47.1833 24.1492 46.7762 24.6543C46.2333 25.3429 45.3738 25.5266 44.9214 25.5266C44.9214 25.5266 44.8762 25.5266 44.831 25.5266H44.7857H44.7405C43.5643 25.5266 42.7952 24.5165 42.75 24.4247L42.7048 24.3788C39.5381 20.5223 31.6667 12.6715 27.9572 8.99859C28.0024 8.95268 28.0476 8.95268 28.0929 8.90677C28.2738 8.76904 28.4095 8.6313 28.5905 8.49357C28.7262 8.40175 28.8167 8.30993 28.9524 8.17219C29.0881 8.08037 29.1786 7.98855 29.2691 7.89673C29.3595 7.85082 29.4048 7.75899 29.4952 7.71308C30.8524 6.56531 32.1643 5.46344 33.0691 4.72886C33.1595 4.63704 33.2952 4.54522 33.3857 4.4534C33.4762 4.36158 33.6119 4.26975 33.7024 4.17793C34.0191 3.90247 34.2 3.76473 34.2 3.76473C34.2 3.76473 36.0548 2.11193 38.4072 3.44336C38.7238 3.627 39.0405 3.94838 39.4024 4.40749C39.4476 4.4534 39.4929 4.49931 39.5381 4.59113L39.5833 4.63704C39.6738 4.72886 39.7643 4.8666 39.8548 5.00433C39.9452 5.14206 40.0357 5.2798 40.1262 5.41753C40.1714 5.50935 40.2167 5.55526 40.2619 5.64709C40.3072 5.693 40.3524 5.73891 40.3524 5.83073C40.3976 5.92255 40.4881 6.06029 40.5333 6.15211C40.5786 6.24393 40.6238 6.33575 40.6691 6.42757C40.7143 6.47348 40.7143 6.5194 40.7595 6.56531C40.85 6.70304 40.8952 6.84077 40.9857 6.97851C40.9857 7.02442 41.031 7.02442 41.031 7.07033C41.2571 7.48353 41.5286 7.94264 41.8 8.44766C41.8452 8.53948 41.9357 8.67722 41.981 8.76904C42.0262 8.86086 42.0714 8.99859 42.1619 9.09041C42.2524 9.27406 42.3429 9.4577 42.4333 9.64135C42.4333 9.68726 42.4786 9.73317 42.4786 9.77908C42.5691 9.91681 42.6143 10.1005 42.7048 10.2841C42.9762 10.7891 43.2024 11.3401 43.4286 11.891C43.5191 12.1205 43.6548 12.3501 43.7452 12.6256C44.1071 13.4061 44.4238 14.2325 44.7405 15.0129C44.9214 15.4261 45.1024 15.8853 45.2381 16.2984C45.3286 16.528 45.4191 16.7116 45.4643 16.9412C45.6452 17.4003 45.8262 17.8594 45.9619 18.3185C46.0524 18.5481 46.0976 18.7317 46.1881 18.9613C46.2786 19.1908 46.3238 19.3745 46.4143 19.604C46.5048 19.7877 46.55 20.0172 46.5952 20.2009C46.6405 20.3845 46.731 20.6141 46.7762 20.7977C46.8214 20.9355 46.8667 21.0732 46.9119 21.2109C47.0476 21.5782 47.1381 21.9914 47.2286 22.3128C47.3191 22.1751 47.3643 22.2669 47.4095 22.4505Z" fill="white"/>
<path d="M46.55 26.3998C46.1429 26.9967 45.8262 27.2721 45.8262 27.2721C45.8262 27.2721 44.4238 28.879 41.981 28.879C41.981 28.879 40.3524 28.9249 39.0857 28.0526C38.6334 27.7312 37.2762 26.8589 35.3762 25.8489C34.3357 25.298 33.0691 24.6552 31.7572 24.1043C31.7119 24.1043 31.7119 24.0584 31.6667 24.0584C30.3095 23.4615 28.9072 22.9106 27.4595 22.4974C27.4595 22.4974 27.4143 22.4974 27.3691 22.4515C25.5143 21.9005 23.6143 21.5332 21.8953 21.5332C14.9286 21.5332 2.71431 28.6035 2.71431 28.6035C2.71431 28.6035 2.3524 28.8331 1.80954 28.8331C1.26669 28.8331 0.271448 28.5576 1.9256e-05 27.318C-0.135695 26.7671 0.588115 24.8848 2.48811 21.7628C2.48811 21.7628 2.48811 21.7169 2.53335 21.7169C3.52859 20.0641 4.8405 18.0899 6.51431 15.7485C8.82145 12.4888 11.8072 8.63224 15.6524 4.08705C15.6524 4.08705 16.6024 2.93927 18.2762 2.93927C18.2762 2.93927 19.6334 2.84745 20.9 3.9034C21.3524 4.27069 23.2524 6.10713 25.9667 8.72406C30.9881 13.6365 38.7691 21.4873 41.7548 25.2061C41.7548 25.2061 42.8857 26.813 44.7405 26.813H44.831C44.8762 26.813 44.9667 26.813 45.0119 26.813C45.2834 26.7671 45.9167 26.7212 46.55 26.3998Z" fill="white"/>
<path opacity="0.2" d="M47.4095 22.4505C47.4095 23.4147 47.1833 24.1492 46.7762 24.6543C46.2333 25.3429 45.3738 25.5266 44.9214 25.5266C44.9214 25.5266 44.8762 25.5266 44.831 25.5266H44.7857H44.7405C43.5643 25.5266 42.7952 24.5165 42.75 24.4247L42.7048 24.3788C39.5381 20.5223 31.6667 12.6715 27.9572 8.99859C28.0024 8.95268 28.0476 8.95268 28.0929 8.90677C28.2738 8.76904 28.4095 8.6313 28.5905 8.49357C28.7262 8.40175 28.8167 8.30993 28.9524 8.17219C29.0881 8.08037 29.1786 7.98855 29.2691 7.89673C31.7119 8.95268 36.7786 11.386 45.6 16.8035C45.781 17.2626 45.9619 17.7217 46.0976 18.1808C46.1881 18.4104 46.2333 18.594 46.3238 18.8236C46.4143 19.0531 46.4595 19.2368 46.55 19.4663C46.6405 19.65 46.6857 19.8795 46.731 20.0632C46.7762 20.2468 46.8667 20.4764 46.9119 20.66C46.9571 20.7977 47.0024 20.9355 47.0476 21.0732C47.1833 21.4405 47.2738 21.8537 47.3643 22.1751C47.3191 22.1751 47.3643 22.2669 47.4095 22.4505Z" fill="white"/>
<path opacity="0.2" d="M27.3691 22.4045C25.5143 21.8536 23.6143 21.4863 21.8953 21.4863C14.9286 21.5322 2.71431 28.6025 2.71431 28.6025C2.71431 28.6025 2.3524 28.8321 1.80954 28.8321C1.26669 28.8321 0.271448 28.5566 1.9256e-05 27.317C-0.135695 26.7661 0.588115 24.8837 2.48811 21.7618C2.48811 21.7618 2.48811 21.7159 2.53335 21.7159C13.1191 18.043 26.2381 22.0373 27.3691 22.4045Z" fill="white"/>
</g>
<defs>
<clipPath id="clip0_4071_1514">
<rect width="190" height="32" fill="white"/>
</clipPath>
</defs>
</svg>
