<svg width="42" height="32" viewBox="0 0 42 32" fill="none" xmlns="http://www.w3.org/2000/svg">
<path d="M37.6181 27.416C41.3921 23.32 41.0121 18.06 41.0001 18V12V2C41.0001 0.896 40.1061 0 39.0001 0H27.0001C24.7941 0 23.0001 1.794 23.0001 4V18C23.0001 19.104 23.8941 20 25.0001 20H27.0001H31.1561C31.1141 20.804 30.9101 21.824 30.2981 22.792C29.2821 24.394 27.3681 25.488 24.6061 26.04L23.0001 26.36V32H25.0001C30.5661 32 34.8121 30.458 37.6181 27.416ZM15.6041 27.416C19.3801 23.32 18.9981 18.06 18.9861 18V12V2C18.9861 0.896 18.0921 0 16.9861 0H4.98608C2.78008 0 0.986084 1.794 0.986084 4V18C0.986084 19.104 1.88008 20 2.98608 20H4.98608H9.14208C9.10008 20.804 8.89608 21.824 8.28408 22.792C7.26808 24.394 5.35408 25.488 2.59208 26.04L0.986084 26.36V32H2.98608C8.55208 32 12.7981 30.458 15.6041 27.416Z" fill="#CACACA"/>
</svg>
