<?xml version="1.0" encoding="utf-8"?>
<!-- Generator: Adobe Illustrator 25.4.1, SVG Export Plug-In . SVG Version: 6.00 Build 0)  -->
<svg version="1.1" id="Capa_1" xmlns="http://www.w3.org/2000/svg" xmlns:xlink="http://www.w3.org/1999/xlink" x="0px" y="0px"
	 viewBox="0 0 1400 8" style="enable-background:new 0 0 1400 8;" xml:space="preserve">
<style type="text/css">
	.st0{clip-path:url(#SVGID_00000111874706823446423860000006425544348719414172_);}
	.st1{fill:none;stroke:#337E93;stroke-width:2;}
</style>
<g>
	<defs>
		<rect id="SVGID_1_" x="0" width="1399.9" height="8"/>
	</defs>
	<clipPath id="SVGID_00000083804008106403557140000005142201434677908377_">
		<use xlink:href="#SVGID_1_"  style="overflow:visible;"/>
	</clipPath>
	<g style="clip-path:url(#SVGID_00000083804008106403557140000005142201434677908377_);">
		<line class="st1" x1="499.7" y1="-1.3" x2="488.7" y2="9.7"/>
		<line class="st1" x1="505.7" y1="-1.3" x2="494.7" y2="9.7"/>
		<line class="st1" x1="511.7" y1="-1.3" x2="500.7" y2="9.7"/>
		<line class="st1" x1="517.7" y1="-1.3" x2="506.7" y2="9.7"/>
		<line class="st1" x1="523.7" y1="-1.3" x2="512.7" y2="9.7"/>
		<line class="st1" x1="529.7" y1="-1.3" x2="518.7" y2="9.7"/>
		<line class="st1" x1="535.7" y1="-1.3" x2="524.7" y2="9.7"/>
		<line class="st1" x1="541.7" y1="-1.3" x2="530.7" y2="9.7"/>
		<line class="st1" x1="547.7" y1="-1.3" x2="536.7" y2="9.7"/>
		<line class="st1" x1="553.7" y1="-1.3" x2="542.7" y2="9.7"/>
		<line class="st1" x1="559.7" y1="-1.3" x2="548.7" y2="9.7"/>
		<line class="st1" x1="565.7" y1="-1.3" x2="554.7" y2="9.7"/>
		<line class="st1" x1="571.7" y1="-1.3" x2="560.7" y2="9.7"/>
		<line class="st1" x1="577.7" y1="-1.3" x2="566.7" y2="9.7"/>
		<line class="st1" x1="583.7" y1="-1.3" x2="572.7" y2="9.7"/>
		<line class="st1" x1="589.7" y1="-1.3" x2="578.7" y2="9.7"/>
		<line class="st1" x1="595.7" y1="-1.3" x2="584.7" y2="9.7"/>
		<line class="st1" x1="601.7" y1="-1.3" x2="590.7" y2="9.7"/>
		<line class="st1" x1="607.7" y1="-1.3" x2="596.7" y2="9.7"/>
		<line class="st1" x1="613.7" y1="-1.3" x2="602.7" y2="9.7"/>
		<line class="st1" x1="619.7" y1="-1.3" x2="608.7" y2="9.7"/>
		<line class="st1" x1="625.7" y1="-1.3" x2="614.7" y2="9.7"/>
		<line class="st1" x1="631.7" y1="-1.3" x2="620.7" y2="9.7"/>
		<line class="st1" x1="637.7" y1="-1.3" x2="626.7" y2="9.7"/>
		<line class="st1" x1="643.7" y1="-1.3" x2="632.7" y2="9.7"/>
		<line class="st1" x1="649.7" y1="-1.3" x2="638.7" y2="9.7"/>
		<line class="st1" x1="655.7" y1="-1.3" x2="644.7" y2="9.7"/>
		<line class="st1" x1="661.7" y1="-1.3" x2="650.7" y2="9.7"/>
		<line class="st1" x1="667.7" y1="-1.3" x2="656.7" y2="9.7"/>
		<line class="st1" x1="673.7" y1="-1.3" x2="662.7" y2="9.7"/>
		<line class="st1" x1="679.7" y1="-1.3" x2="668.7" y2="9.7"/>
		<line class="st1" x1="685.7" y1="-1.3" x2="674.7" y2="9.7"/>
		<line class="st1" x1="691.7" y1="-1.3" x2="680.7" y2="9.7"/>
		<line class="st1" x1="697.7" y1="-1.3" x2="686.7" y2="9.7"/>
		<line class="st1" x1="703.7" y1="-1.3" x2="692.7" y2="9.7"/>
		<line class="st1" x1="709.7" y1="-1.3" x2="698.7" y2="9.7"/>
		<line class="st1" x1="715.7" y1="-1.3" x2="704.7" y2="9.7"/>
		<line class="st1" x1="721.7" y1="-1.3" x2="710.7" y2="9.7"/>
		<line class="st1" x1="727.7" y1="-1.3" x2="716.7" y2="9.7"/>
		<line class="st1" x1="733.7" y1="-1.3" x2="722.7" y2="9.7"/>
		<line class="st1" x1="739.7" y1="-1.3" x2="728.7" y2="9.7"/>
		<line class="st1" x1="745.7" y1="-1.3" x2="734.7" y2="9.7"/>
		<line class="st1" x1="751.7" y1="-1.3" x2="740.7" y2="9.7"/>
		<line class="st1" x1="757.7" y1="-1.3" x2="746.7" y2="9.7"/>
		<line class="st1" x1="763.7" y1="-1.3" x2="752.7" y2="9.7"/>
		<line class="st1" x1="769.7" y1="-1.3" x2="758.7" y2="9.7"/>
		<line class="st1" x1="775.7" y1="-1.3" x2="764.7" y2="9.7"/>
		<line class="st1" x1="781.7" y1="-1.3" x2="770.7" y2="9.7"/>
		<line class="st1" x1="787.7" y1="-1.3" x2="776.7" y2="9.7"/>
		<line class="st1" x1="793.7" y1="-1.3" x2="782.7" y2="9.7"/>
		<line class="st1" x1="799.7" y1="-1.3" x2="788.7" y2="9.7"/>
		<line class="st1" x1="805.7" y1="-1.3" x2="794.7" y2="9.7"/>
		<line class="st1" x1="811.7" y1="-1.3" x2="800.7" y2="9.7"/>
		<line class="st1" x1="817.7" y1="-1.3" x2="806.7" y2="9.7"/>
		<line class="st1" x1="823.7" y1="-1.3" x2="812.7" y2="9.7"/>
		<line class="st1" x1="829.7" y1="-1.3" x2="818.7" y2="9.7"/>
		<line class="st1" x1="835.7" y1="-1.3" x2="824.7" y2="9.7"/>
		<line class="st1" x1="841.7" y1="-1.3" x2="830.7" y2="9.7"/>
		<line class="st1" x1="847.7" y1="-1.3" x2="836.7" y2="9.7"/>
		<line class="st1" x1="853.7" y1="-1.3" x2="842.7" y2="9.7"/>
		<line class="st1" x1="859.7" y1="-1.3" x2="848.7" y2="9.7"/>
		<line class="st1" x1="865.7" y1="-1.3" x2="854.7" y2="9.7"/>
		<line class="st1" x1="871.7" y1="-1.3" x2="860.7" y2="9.7"/>
		<line class="st1" x1="877.7" y1="-1.3" x2="866.7" y2="9.7"/>
		<line class="st1" x1="883.7" y1="-1.3" x2="872.7" y2="9.7"/>
		<line class="st1" x1="889.7" y1="-1.3" x2="878.7" y2="9.7"/>
		<line class="st1" x1="895.7" y1="-1.3" x2="884.7" y2="9.7"/>
		<line class="st1" x1="901.7" y1="-1.3" x2="890.7" y2="9.7"/>
		<line class="st1" x1="907.7" y1="-1.3" x2="896.7" y2="9.7"/>
		<line class="st1" x1="913.7" y1="-1.3" x2="902.7" y2="9.7"/>
		<line class="st1" x1="919.7" y1="-1.3" x2="908.7" y2="9.7"/>
		<line class="st1" x1="925.7" y1="-1.3" x2="914.7" y2="9.7"/>
		<line class="st1" x1="931.7" y1="-1.3" x2="920.7" y2="9.7"/>
		<line class="st1" x1="937.7" y1="-1.3" x2="926.7" y2="9.7"/>
		<line class="st1" x1="943.7" y1="-1.3" x2="932.7" y2="9.7"/>
		<line class="st1" x1="949.7" y1="-1.3" x2="938.7" y2="9.7"/>
		<line class="st1" x1="955.7" y1="-1.3" x2="944.7" y2="9.7"/>
		<line class="st1" x1="961.7" y1="-1.3" x2="950.7" y2="9.7"/>
		<line class="st1" x1="967.7" y1="-1.3" x2="956.7" y2="9.7"/>
		<line class="st1" x1="973.7" y1="-1.3" x2="962.7" y2="9.7"/>
		<line class="st1" x1="979.7" y1="-1.3" x2="968.7" y2="9.7"/>
		<line class="st1" x1="985.7" y1="-1.3" x2="974.7" y2="9.7"/>
		<line class="st1" x1="1.7" y1="-1.3" x2="-9.3" y2="9.7"/>
		<line class="st1" x1="7.7" y1="-1.3" x2="-3.3" y2="9.7"/>
		<line class="st1" x1="13.7" y1="-1.3" x2="2.7" y2="9.7"/>
		<line class="st1" x1="19.7" y1="-1.3" x2="8.7" y2="9.7"/>
		<line class="st1" x1="25.7" y1="-1.3" x2="14.7" y2="9.7"/>
		<line class="st1" x1="31.7" y1="-1.3" x2="20.7" y2="9.7"/>
		<line class="st1" x1="37.7" y1="-1.3" x2="26.7" y2="9.7"/>
		<line class="st1" x1="43.7" y1="-1.3" x2="32.7" y2="9.7"/>
		<line class="st1" x1="49.7" y1="-1.3" x2="38.7" y2="9.7"/>
		<line class="st1" x1="55.7" y1="-1.3" x2="44.7" y2="9.7"/>
		<line class="st1" x1="61.7" y1="-1.3" x2="50.7" y2="9.7"/>
		<line class="st1" x1="67.7" y1="-1.3" x2="56.7" y2="9.7"/>
		<line class="st1" x1="73.7" y1="-1.3" x2="62.7" y2="9.7"/>
		<line class="st1" x1="79.7" y1="-1.3" x2="68.7" y2="9.7"/>
		<line class="st1" x1="85.7" y1="-1.3" x2="74.7" y2="9.7"/>
		<line class="st1" x1="91.7" y1="-1.3" x2="80.7" y2="9.7"/>
		<line class="st1" x1="97.7" y1="-1.3" x2="86.7" y2="9.7"/>
		<line class="st1" x1="103.7" y1="-1.3" x2="92.7" y2="9.7"/>
		<line class="st1" x1="109.7" y1="-1.3" x2="98.7" y2="9.7"/>
		<line class="st1" x1="115.7" y1="-1.3" x2="104.7" y2="9.7"/>
		<line class="st1" x1="121.7" y1="-1.3" x2="110.7" y2="9.7"/>
		<line class="st1" x1="127.7" y1="-1.3" x2="116.7" y2="9.7"/>
		<line class="st1" x1="133.7" y1="-1.3" x2="122.7" y2="9.7"/>
		<line class="st1" x1="139.7" y1="-1.3" x2="128.7" y2="9.7"/>
		<line class="st1" x1="145.7" y1="-1.3" x2="134.7" y2="9.7"/>
		<line class="st1" x1="151.7" y1="-1.3" x2="140.7" y2="9.7"/>
		<line class="st1" x1="157.7" y1="-1.3" x2="146.7" y2="9.7"/>
		<line class="st1" x1="163.7" y1="-1.3" x2="152.7" y2="9.7"/>
		<line class="st1" x1="169.7" y1="-1.3" x2="158.7" y2="9.7"/>
		<line class="st1" x1="175.7" y1="-1.3" x2="164.7" y2="9.7"/>
		<line class="st1" x1="181.7" y1="-1.3" x2="170.7" y2="9.7"/>
		<line class="st1" x1="187.7" y1="-1.3" x2="176.7" y2="9.7"/>
		<line class="st1" x1="193.7" y1="-1.3" x2="182.7" y2="9.7"/>
		<line class="st1" x1="199.7" y1="-1.3" x2="188.7" y2="9.7"/>
		<line class="st1" x1="205.7" y1="-1.3" x2="194.7" y2="9.7"/>
		<line class="st1" x1="211.7" y1="-1.3" x2="200.7" y2="9.7"/>
		<line class="st1" x1="217.7" y1="-1.3" x2="206.7" y2="9.7"/>
		<line class="st1" x1="223.7" y1="-1.3" x2="212.7" y2="9.7"/>
		<line class="st1" x1="229.7" y1="-1.3" x2="218.7" y2="9.7"/>
		<line class="st1" x1="235.7" y1="-1.3" x2="224.7" y2="9.7"/>
		<line class="st1" x1="241.7" y1="-1.3" x2="230.7" y2="9.7"/>
		<line class="st1" x1="247.7" y1="-1.3" x2="236.7" y2="9.7"/>
		<line class="st1" x1="253.7" y1="-1.3" x2="242.7" y2="9.7"/>
		<line class="st1" x1="259.7" y1="-1.3" x2="248.7" y2="9.7"/>
		<line class="st1" x1="265.7" y1="-1.3" x2="254.7" y2="9.7"/>
		<line class="st1" x1="271.7" y1="-1.3" x2="260.7" y2="9.7"/>
		<line class="st1" x1="277.7" y1="-1.3" x2="266.7" y2="9.7"/>
		<line class="st1" x1="283.7" y1="-1.3" x2="272.7" y2="9.7"/>
		<line class="st1" x1="289.7" y1="-1.3" x2="278.7" y2="9.7"/>
		<line class="st1" x1="295.7" y1="-1.3" x2="284.7" y2="9.7"/>
		<line class="st1" x1="301.7" y1="-1.3" x2="290.7" y2="9.7"/>
		<line class="st1" x1="307.7" y1="-1.3" x2="296.7" y2="9.7"/>
		<line class="st1" x1="313.7" y1="-1.3" x2="302.7" y2="9.7"/>
		<line class="st1" x1="319.7" y1="-1.3" x2="308.7" y2="9.7"/>
		<line class="st1" x1="325.7" y1="-1.3" x2="314.7" y2="9.7"/>
		<line class="st1" x1="331.7" y1="-1.3" x2="320.7" y2="9.7"/>
		<line class="st1" x1="337.7" y1="-1.3" x2="326.7" y2="9.7"/>
		<line class="st1" x1="343.7" y1="-1.3" x2="332.7" y2="9.7"/>
		<line class="st1" x1="349.7" y1="-1.3" x2="338.7" y2="9.7"/>
		<line class="st1" x1="355.7" y1="-1.3" x2="344.7" y2="9.7"/>
		<line class="st1" x1="361.7" y1="-1.3" x2="350.7" y2="9.7"/>
		<line class="st1" x1="367.7" y1="-1.3" x2="356.7" y2="9.7"/>
		<line class="st1" x1="373.7" y1="-1.3" x2="362.7" y2="9.7"/>
		<line class="st1" x1="379.7" y1="-1.3" x2="368.7" y2="9.7"/>
		<line class="st1" x1="385.7" y1="-1.3" x2="374.7" y2="9.7"/>
		<line class="st1" x1="391.7" y1="-1.3" x2="380.7" y2="9.7"/>
		<line class="st1" x1="397.7" y1="-1.3" x2="386.7" y2="9.7"/>
		<line class="st1" x1="403.7" y1="-1.3" x2="392.7" y2="9.7"/>
		<line class="st1" x1="409.7" y1="-1.3" x2="398.7" y2="9.7"/>
		<line class="st1" x1="415.7" y1="-1.3" x2="404.7" y2="9.7"/>
		<line class="st1" x1="421.7" y1="-1.3" x2="410.7" y2="9.7"/>
		<line class="st1" x1="427.7" y1="-1.3" x2="416.7" y2="9.7"/>
		<line class="st1" x1="433.7" y1="-1.3" x2="422.7" y2="9.7"/>
		<line class="st1" x1="439.7" y1="-1.3" x2="428.7" y2="9.7"/>
		<line class="st1" x1="445.7" y1="-1.3" x2="434.7" y2="9.7"/>
		<line class="st1" x1="451.7" y1="-1.3" x2="440.7" y2="9.7"/>
		<line class="st1" x1="457.7" y1="-1.3" x2="446.7" y2="9.7"/>
		<line class="st1" x1="463.7" y1="-1.3" x2="452.7" y2="9.7"/>
		<line class="st1" x1="469.7" y1="-1.3" x2="458.7" y2="9.7"/>
		<line class="st1" x1="475.7" y1="-1.3" x2="464.7" y2="9.7"/>
		<line class="st1" x1="481.7" y1="-1.3" x2="470.7" y2="9.7"/>
		<line class="st1" x1="487.7" y1="-1.3" x2="476.7" y2="9.7"/>
		<line class="st1" x1="493.7" y1="-1.3" x2="482.7" y2="9.7"/>
		<line class="st1" x1="1063.6" y1="-1.3" x2="1052.6" y2="9.7"/>
		<line class="st1" x1="1069.6" y1="-1.3" x2="1058.6" y2="9.7"/>
		<line class="st1" x1="1075.6" y1="-1.3" x2="1064.6" y2="9.7"/>
		<line class="st1" x1="1081.6" y1="-1.3" x2="1070.6" y2="9.7"/>
		<line class="st1" x1="1087.6" y1="-1.3" x2="1076.6" y2="9.7"/>
		<line class="st1" x1="1093.6" y1="-1.3" x2="1082.6" y2="9.7"/>
		<line class="st1" x1="1099.6" y1="-1.3" x2="1088.6" y2="9.7"/>
		<line class="st1" x1="1105.6" y1="-1.3" x2="1094.6" y2="9.7"/>
		<line class="st1" x1="1111.6" y1="-1.3" x2="1100.6" y2="9.7"/>
		<line class="st1" x1="1117.6" y1="-1.3" x2="1106.6" y2="9.7"/>
		<line class="st1" x1="1123.6" y1="-1.3" x2="1112.6" y2="9.7"/>
		<line class="st1" x1="1129.6" y1="-1.3" x2="1118.6" y2="9.7"/>
		<line class="st1" x1="1135.6" y1="-1.3" x2="1124.6" y2="9.7"/>
		<line class="st1" x1="1141.6" y1="-1.3" x2="1130.6" y2="9.7"/>
		<line class="st1" x1="1147.6" y1="-1.3" x2="1136.6" y2="9.7"/>
		<line class="st1" x1="1153.6" y1="-1.3" x2="1142.6" y2="9.7"/>
		<line class="st1" x1="1159.6" y1="-1.3" x2="1148.6" y2="9.7"/>
		<line class="st1" x1="1165.6" y1="-1.3" x2="1154.6" y2="9.7"/>
		<line class="st1" x1="1171.6" y1="-1.3" x2="1160.6" y2="9.7"/>
		<line class="st1" x1="1177.6" y1="-1.3" x2="1166.6" y2="9.7"/>
		<line class="st1" x1="1183.6" y1="-1.3" x2="1172.6" y2="9.7"/>
		<line class="st1" x1="1189.6" y1="-1.3" x2="1178.6" y2="9.7"/>
		<line class="st1" x1="1195.6" y1="-1.3" x2="1184.6" y2="9.7"/>
		<line class="st1" x1="1201.6" y1="-1.3" x2="1190.6" y2="9.7"/>
		<line class="st1" x1="1207.6" y1="-1.3" x2="1196.6" y2="9.7"/>
		<line class="st1" x1="1213.6" y1="-1.3" x2="1202.6" y2="9.7"/>
		<line class="st1" x1="1219.6" y1="-1.3" x2="1208.6" y2="9.7"/>
		<line class="st1" x1="1225.6" y1="-1.3" x2="1214.6" y2="9.7"/>
		<line class="st1" x1="1231.6" y1="-1.3" x2="1220.6" y2="9.7"/>
		<line class="st1" x1="1237.6" y1="-1.3" x2="1226.6" y2="9.7"/>
		<line class="st1" x1="1243.6" y1="-1.3" x2="1232.6" y2="9.7"/>
		<line class="st1" x1="1249.6" y1="-1.3" x2="1238.6" y2="9.7"/>
		<line class="st1" x1="1255.6" y1="-1.3" x2="1244.6" y2="9.7"/>
		<line class="st1" x1="1261.6" y1="-1.3" x2="1250.6" y2="9.7"/>
		<line class="st1" x1="1267.6" y1="-1.3" x2="1256.6" y2="9.7"/>
		<line class="st1" x1="1273.6" y1="-1.3" x2="1262.6" y2="9.7"/>
		<line class="st1" x1="1279.6" y1="-1.3" x2="1268.6" y2="9.7"/>
		<line class="st1" x1="1285.6" y1="-1.3" x2="1274.6" y2="9.7"/>
		<line class="st1" x1="1291.6" y1="-1.3" x2="1280.6" y2="9.7"/>
		<line class="st1" x1="1297.6" y1="-1.3" x2="1286.6" y2="9.7"/>
		<line class="st1" x1="1303.6" y1="-1.3" x2="1292.6" y2="9.7"/>
		<line class="st1" x1="1309.6" y1="-1.3" x2="1298.6" y2="9.7"/>
		<line class="st1" x1="1315.6" y1="-1.3" x2="1304.6" y2="9.7"/>
		<line class="st1" x1="1321.6" y1="-1.3" x2="1310.6" y2="9.7"/>
		<line class="st1" x1="1327.6" y1="-1.3" x2="1316.6" y2="9.7"/>
		<line class="st1" x1="1333.6" y1="-1.3" x2="1322.6" y2="9.7"/>
		<line class="st1" x1="1339.6" y1="-1.3" x2="1328.6" y2="9.7"/>
		<line class="st1" x1="1345.6" y1="-1.3" x2="1334.6" y2="9.7"/>
		<line class="st1" x1="1351.6" y1="-1.3" x2="1340.6" y2="9.7"/>
		<line class="st1" x1="1357.6" y1="-1.3" x2="1346.6" y2="9.7"/>
		<line class="st1" x1="1363.6" y1="-1.3" x2="1352.6" y2="9.7"/>
		<line class="st1" x1="1369.6" y1="-1.3" x2="1358.6" y2="9.7"/>
		<line class="st1" x1="1375.6" y1="-1.3" x2="1364.6" y2="9.7"/>
		<line class="st1" x1="1381.6" y1="-1.3" x2="1370.6" y2="9.7"/>
		<line class="st1" x1="1387.6" y1="-1.3" x2="1376.6" y2="9.7"/>
		<line class="st1" x1="1393.6" y1="-1.3" x2="1382.6" y2="9.7"/>
		<line class="st1" x1="1399.6" y1="-1.3" x2="1388.6" y2="9.7"/>
		<line class="st1" x1="1405.6" y1="-1.3" x2="1394.6" y2="9.7"/>
		<line class="st1" x1="991.6" y1="-1.3" x2="980.6" y2="9.7"/>
		<line class="st1" x1="997.6" y1="-1.3" x2="986.6" y2="9.7"/>
		<line class="st1" x1="1003.6" y1="-1.3" x2="992.6" y2="9.7"/>
		<line class="st1" x1="1009.6" y1="-1.3" x2="998.6" y2="9.7"/>
		<line class="st1" x1="1015.6" y1="-1.3" x2="1004.6" y2="9.7"/>
		<line class="st1" x1="1021.6" y1="-1.3" x2="1010.6" y2="9.7"/>
		<line class="st1" x1="1027.6" y1="-1.3" x2="1016.6" y2="9.7"/>
		<line class="st1" x1="1033.6" y1="-1.3" x2="1022.6" y2="9.7"/>
		<line class="st1" x1="1039.6" y1="-1.3" x2="1028.6" y2="9.7"/>
		<line class="st1" x1="1045.6" y1="-1.3" x2="1034.6" y2="9.7"/>
		<line class="st1" x1="1051.6" y1="-1.3" x2="1040.6" y2="9.7"/>
		<line class="st1" x1="1057.6" y1="-1.3" x2="1046.6" y2="9.7"/>
	</g>
</g>
</svg>
