<svg width="173" height="133" viewBox="0 0 173 133" fill="none" xmlns="http://www.w3.org/2000/svg">
<path d="M54.0141 24.1217C20.8177 29.041 4.39132 57.0091 2.28073 76.7435C-0.297823 100.834 10.8855 113.566 31.7526 111.914C54.377 110.118 80.4013 107.673 108.479 111.914C136.566 116.155 157.576 120.043 167.891 94.2236C178.205 68.4046 164.644 19.2216 126.643 10.5771C98.6518 4.20591 88.5859 19.0019 54.0141 24.1217Z" fill="#F1F1F1"/>
<path d="M131.151 119.603C131.151 119.603 131.399 102.028 125.583 96.8123C119.767 91.5969 104.134 68.2806 116.778 62.5398C129.423 56.7991 133.224 77.8612 141.332 84.9965C149.44 92.1318 142.573 118.954 142.573 118.954L131.151 119.603Z" fill="#E4E4E4"/>
<path d="M139.097 123.109L138.524 123.052C138.543 122.841 140.634 102.095 136.862 92.7814C135.114 88.4735 131.638 84.3375 127.942 79.9531C123.492 74.6709 118.898 69.2167 116.501 62.6259L117.036 62.4348C119.395 68.9301 123.96 74.3461 128.372 79.5901C132.096 84.0031 135.601 88.1773 137.387 92.5712C141.226 102.009 139.125 122.908 139.097 123.109Z" fill="#CACACA"/>
<path d="M126.357 78.3771C125.841 76.9634 125.87 73.9354 125.898 70.726C125.927 67.6407 125.956 64.1447 125.354 63.2754L125.822 62.9507C126.519 63.9727 126.491 67.2586 126.462 70.7355C126.433 73.7539 126.414 76.8679 126.892 78.186L126.357 78.3771Z" fill="#CACACA"/>
<path d="M129.117 81.3477C128.668 80.8128 125.87 79.6474 122.919 78.4152C116.912 75.9222 112.28 73.878 111.812 72.3211L112.356 72.1587C112.786 73.5915 118.774 76.075 123.138 77.8899C126.787 79.4086 129.05 80.3638 129.556 80.9847L129.117 81.3477Z" fill="#CACACA"/>
<path d="M135.2 89.3903C134.847 88.7025 134.608 86.1426 134.264 81.9971C133.968 78.4151 133.634 74.365 133.185 73.5627L133.682 73.2761C134.198 74.1836 134.503 77.9566 134.837 81.9493C135.105 85.1683 135.372 88.4924 135.707 89.1228L135.2 89.3903Z" fill="#CACACA"/>
<path d="M137.836 95.8571C136.872 94.3192 132.125 93.1156 127.933 92.0554C123.635 90.9664 119.576 89.9444 118.593 88.4925L119.06 88.1677C119.93 89.4381 124.074 90.4888 128.076 91.5014C132.784 92.6953 137.235 93.8225 138.323 95.5514L137.836 95.8571Z" fill="#CACACA"/>
<path d="M138.858 110.519C138.447 107.157 134.245 105.237 131.18 103.833C130.1 103.346 129.174 102.916 128.639 102.515L128.983 102.056C129.47 102.419 130.377 102.83 131.418 103.308C134.427 104.683 138.973 106.766 139.421 110.443L138.858 110.519Z" fill="#CACACA"/>
<path d="M139.565 104.893L138.992 104.855C139.078 103.613 140.224 100.948 141.437 98.121C142.726 95.1025 144.197 91.6829 144.092 90.4794L144.665 90.4316C144.789 91.7689 143.413 94.9688 141.971 98.3407C140.825 101.006 139.651 103.747 139.565 104.893Z" fill="#CACACA"/>
<path d="M136.48 118.791C143.28 109.192 135.458 77.3644 150.949 64.4597C166.43 51.555 177.345 58.996 167.432 77.2975C157.519 95.5991 154.148 117.11 148.771 119.097C143.394 121.084 136.48 118.791 136.48 118.791Z" fill="#E4E4E4"/>
<path d="M141.981 123.204L141.417 123.099C141.446 122.946 144.33 107.682 150.5 87.5755C154.549 74.3747 159.534 68.1564 162.829 64.0395C164.663 61.747 165.99 60.085 166.496 58.1746L167.05 58.3178C166.515 60.3429 165.159 62.0431 163.278 64.3929C160.012 68.4716 155.074 74.6421 151.054 87.7379C144.894 107.826 142.01 123.061 141.981 123.204Z" fill="#CACACA"/>
<path d="M153.9 79.8288L153.451 79.4658C155.265 77.202 159.038 75.4445 162.695 73.7347C166.42 71.9962 169.944 70.3533 170.565 68.5098L171.109 68.6912C170.402 70.764 166.783 72.4547 162.944 74.2505C159.343 75.9412 155.628 77.6796 153.9 79.8288Z" fill="#CACACA"/>
<path d="M151.054 87.7472L150.509 87.5849C150.92 86.238 150.863 82.2167 150.805 77.966C150.7 70.0284 150.729 64.3163 152.066 63.1987L152.438 63.6381C151.206 64.6697 151.302 72.0438 151.378 77.9565C151.436 82.4364 151.493 86.3049 151.054 87.7472Z" fill="#CACACA"/>
<path d="M147.243 100.996L146.689 100.843C147.348 98.4647 151.006 95.9334 154.883 93.2684C158.293 90.9186 161.826 88.4829 162.791 86.3528L163.316 86.5916C162.294 88.8649 158.694 91.3485 155.218 93.746C151.588 96.2295 147.845 98.8181 147.243 100.996Z" fill="#CACACA"/>
<path d="M146.059 105.495L145.505 105.352C146.107 102.954 144.206 95.5419 142.821 90.1355C141.8 86.1618 141.227 83.8694 141.351 83.1816L141.914 83.2772C141.809 83.8789 142.573 86.8496 143.375 89.9922C144.856 95.7711 146.689 102.954 146.059 105.495Z" fill="#CACACA"/>
<path d="M143.48 116.241L142.917 116.117C143.213 114.76 145.753 113.404 148.695 111.837C151.436 110.376 154.539 108.723 155.055 107.243L155.6 107.434C155.007 109.115 151.932 110.758 148.962 112.344C146.393 113.719 143.719 115.142 143.48 116.241Z" fill="#CACACA"/>
<path d="M49.7739 87.3462C49.7739 87.3462 49.7548 77.8134 49.5447 69.9043C49.3346 61.9953 56.8219 53.2935 58.5792 48.785C60.3364 44.2669 58.4932 37.3608 64.8346 34.3042C64.8346 34.3042 61.11 40.9524 64.4812 44.4006C67.8524 47.8489 63.5357 59.7124 62.8672 64.8036C62.1987 69.8757 58.3595 83.3535 49.7739 87.3462Z" fill="#E4E4E4"/>
<path d="M40.8635 103.04C40.8635 103.04 36.2794 81.7392 29.0786 72.6935C21.8777 63.6478 22.3648 65.0233 11.85 62.8072C1.34479 60.5912 1.91781 68.2996 1.91781 68.2996C1.91781 68.2996 7.80073 64.9564 11.191 69.3694C14.5909 73.7824 15.565 79.5996 22.2215 88.7408C28.878 97.882 40.8635 103.04 40.8635 103.04Z" fill="#E4E4E4"/>
<path d="M18.4587 38.4116C20.5693 46.1296 36.5755 50.1987 40.2523 58.4039C43.9291 66.609 42.3438 86.458 42.3438 86.458C42.3438 86.458 32.3447 77.8325 31.6667 70.2101C30.9886 62.5876 25.7837 59.5597 21.7535 51.8035C17.7329 44.0377 18.4587 38.4116 18.4587 38.4116Z" fill="#E4E4E4"/>
<path d="M46.6891 122.469L46.1161 122.507C46.1065 122.287 44.6263 100.509 42.0668 86.5151L41.8663 85.4167C39.3737 71.7669 37.8743 63.5236 30.3105 56.2163C22.5367 48.6894 18.2391 38.6312 18.2009 38.5261L18.7261 38.3064C18.7643 38.4019 23.0237 48.3646 30.7116 55.8056C38.3995 63.237 39.918 71.5472 42.4297 85.3116L42.6303 86.4101C45.1993 100.432 46.6796 122.249 46.6891 122.469Z" fill="#E4E4E4"/>
<path d="M45.5527 115.219C44.8842 108.236 38.7243 100.069 32.211 91.4248C28.3337 86.2763 24.3226 80.9654 20.9609 75.3393L21.448 75.0432C24.7905 80.6407 28.7921 85.942 32.6599 91.0714C39.2304 99.7828 45.4285 108.017 46.1161 115.161L45.5527 115.219Z" fill="#CACACA"/>
<path d="M44.3493 102.801C43.6044 96.8505 46.2976 92.4662 48.8952 88.2346C50.5474 85.541 52.2569 82.7614 53.0591 79.5997C55.1028 71.5474 56.65 56.3215 56.6595 56.1687L57.2325 56.226C57.2134 56.3788 55.6663 71.6429 53.613 79.7334C52.7917 82.9811 51.0536 85.7989 49.3823 88.5307C46.7178 92.8769 44.1965 96.9747 44.9128 102.725L44.3493 102.801Z" fill="#CACACA"/>
<path d="M73.7353 92.3992C73.7353 92.3992 71.6247 112.267 69.8102 114.56C68.0052 116.852 61.8931 117.998 61.8931 121.055C61.8931 124.112 112.7 123.73 113.082 121.055C113.464 118.381 108.25 116.47 106.273 114.56C104.296 112.649 102.004 92.3992 102.004 92.3992H73.7353Z" fill="#414141"/>
<path d="M69.8292 118.667L69.8006 118.094C70.0203 118.084 91.5846 116.957 106.282 118.094L106.235 118.667C91.575 117.54 70.0489 118.658 69.8292 118.667Z" fill="#CACACA"/>
<path d="M31.9914 21.409C28.3241 22.88 27.7511 93.7746 31.9532 97.5954C36.1553 101.416 140.443 100.652 141.971 97.5954C143.5 94.5388 146.766 24.628 140.787 20.8072C134.809 16.9864 40.9113 17.8175 31.9914 21.409Z" fill="#414141"/>
<path d="M35.4294 25.4876C32.5453 27.5508 33.5194 83.0764 35.4294 85.3688C37.3395 87.6613 134.751 87.6613 137.426 85.3688C140.1 83.0764 139.336 27.8851 137.426 25.4876C135.516 23.09 38.4855 23.3002 35.4294 25.4876Z" fill="#E4E4E4"/>
<path d="M98.8428 87.0883C98.8428 87.0883 98.8428 79.6378 100.18 76.9632C101.517 74.2887 106.674 65.5009 108.775 56.331C110.876 47.1611 108.393 24.2364 105.528 24.2364C102.663 24.2364 102.854 41.2389 102.854 41.2389C102.854 41.2389 103.045 19.8425 99.6068 19.8425C96.1688 19.8425 95.9778 39.9016 95.9778 39.9016C95.9778 39.9016 96.1688 16.0217 92.1577 16.0217C88.1466 16.0217 88.3376 39.7106 88.3376 39.7106C88.3376 39.7106 88.1753 20.2246 84.4316 20.2246C80.6879 20.2246 81.4615 50.0267 80.5064 58.8145C79.5514 67.6023 84.4316 87.0883 84.4316 87.0883H98.8428Z" fill="white"/>
<path d="M107.419 61.1069C107.944 59.5499 108.403 57.9452 108.775 56.3309C109.243 54.2868 109.482 51.5645 109.539 48.5652C100.59 50.0266 86.3606 55.5954 80.5828 57.9452C80.5541 58.2509 80.5255 58.5374 80.4968 58.8049C80.4586 59.1583 80.43 59.5404 80.4109 59.9225C85.5298 61.7373 97.7922 65.1951 107.419 61.1069Z" fill="#F1F1F1"/>
<path d="M47.2431 3.79514C45.7055 6.25955 45.3617 54.2295 47.2431 57.4485C49.1245 60.6675 121.811 58.547 125.029 54.3728C128.248 50.1986 126.366 9.95616 125.029 4.85541C123.692 -0.226232 49.9267 -0.493687 47.2431 3.79514Z" fill="#CACACA"/>
<path d="M86.3894 44.5917C79.0739 44.5917 48.3318 5.62923 47.0234 3.96719L47.4723 3.61377C47.7875 4.01495 79.3413 44.0185 86.3894 44.0185C93.4374 44.0185 124.504 5.08477 124.81 4.69314L125.259 5.04656C123.969 6.66084 93.7048 44.5917 86.3894 44.5917Z" fill="#696969"/>
<path d="M47.4532 57.6491L47.033 57.2574C47.1762 57.1046 61.6161 41.4203 72.9426 33.6545L73.2673 34.1321C61.9981 41.8597 47.5964 57.4962 47.4532 57.6491Z" fill="#696969"/>
<path d="M124.819 54.583C112.375 41.2198 101.345 32.5562 101.24 32.4702L101.593 32.0212C101.708 32.1072 112.767 40.7995 125.24 54.2009L124.819 54.583Z" fill="#696969"/>
<path d="M80.2007 38.0867C76.3807 38.0867 79.1693 46.5879 78.0233 50.5997C76.8773 54.6116 73.4392 58.2413 74.3942 64.9277C75.3492 71.6141 80.6973 76.008 81.8434 79.0646C82.9894 82.1212 81.8434 87.0882 81.8434 87.0882H94.6406C94.6406 87.0882 93.8766 82.3123 93.4946 72.3782C93.1126 62.4442 85.5011 60.5338 84.4315 59.0055C83.3714 57.4772 86.4275 53.4653 86.2365 48.3073C86.0455 43.1492 82.1967 38.0867 80.2007 38.0867Z" fill="white"/>
<path d="M87.3253 96.7453C87.2298 96.7453 87.1343 96.7453 87.0388 96.7357C85.0141 96.5733 84.3552 95.0355 84.4029 93.7746C84.4602 92.275 85.4725 90.7275 87.0674 90.7275C88.5763 90.7275 89.7033 91.2529 90.2572 92.1985C90.7442 93.0487 90.706 94.1662 90.1617 95.1214C89.56 96.1339 88.4999 96.7453 87.3253 96.7453ZM87.0674 91.2911C85.8259 91.2911 85.0237 92.5615 84.9759 93.7937C84.9377 94.854 85.463 96.0384 87.0865 96.1626C87.1629 96.1722 87.2489 96.1721 87.3253 96.1721C88.2994 96.1721 89.1685 95.6659 89.6555 94.8158C90.1044 94.0421 90.1426 93.1442 89.751 92.466C89.3117 91.7114 88.3567 91.2911 87.0674 91.2911Z" fill="#CACACA"/>
<path d="M40.7203 2.3245C50.662 3.97699 51.8367 10.6634 51.6457 19.1837C51.4642 27.7041 56.65 33.2633 60.1645 33.2633C60.1645 33.2633 55.5326 34.9349 52.0181 33.2633C48.4941 31.5917 44.9797 36.2244 35.907 34.0084C26.8343 31.7827 18.6784 25.1919 22.5749 13.7582C26.4618 2.3245 34.0542 1.20692 40.7203 2.3245Z" fill="#7D7D7D"/>
<path d="M36.1362 15.7446C36.1362 15.7446 39.5743 8.79076 43.0123 12.2963C46.4504 15.8019 37.9698 21.9629 36.3654 25.8792C36.3654 25.8792 27.4264 17.2729 31.0937 12.2963C34.761 7.31975 36.1362 15.7446 36.1362 15.7446Z" fill="white"/>
<path d="M107.839 40.7421C107.839 40.7421 111.277 33.7883 114.715 37.2939C118.153 40.7994 109.673 46.9605 108.068 50.8768C108.068 50.8768 99.1293 42.2704 102.797 37.2939C106.464 32.3173 107.839 40.7421 107.839 40.7421Z" fill="#696969"/>
<path d="M112.394 27.5796C122.164 29.213 123.32 35.7752 123.138 44.1522C122.957 52.5293 128.057 57.993 131.514 57.993C131.514 57.993 126.959 59.636 123.501 57.993C120.044 56.3501 116.577 60.9064 107.658 58.719C98.7377 56.5316 90.7251 50.0458 94.5452 38.8127C98.3748 27.5796 105.843 26.4907 112.394 27.5796Z" fill="white"/>
<path d="M107.839 40.7421C107.839 40.7421 111.277 33.7883 114.715 37.2939C118.153 40.7994 109.673 46.9605 108.068 50.8768C108.068 50.8768 99.1293 42.2704 102.797 37.2939C106.464 32.3173 107.839 40.7421 107.839 40.7421Z" fill="#7D7D7D"/>
<path d="M78.8085 112.963C78.7472 113.562 78.6528 114.149 78.5216 114.719C76.8404 121.981 69.2991 127.016 55.8444 127.931C28.677 129.777 13.7092 128.136 8.37809 115.218C7.17244 112.299 6.70482 108.526 6.77078 104.405C6.99238 90.2731 13.4467 72.0003 17.8103 69.6998C23.4487 66.7266 27.4469 68.2646 27.4469 68.2646C36.5711 70.2123 51.1286 96.9701 62.5084 97.995C73.8876 99.0206 79.6046 104.999 78.8085 112.963Z" fill="#979797"/>
<path d="M19.0397 86.0004C19.0397 86.0004 25.806 91.4337 28.1638 97.4824C30.5217 103.531 30.5217 108.862 35.4426 109.887C40.3635 110.912 49.5905 111.527 58.9198 108.759C68.2491 105.991 68.4542 102.711 58.6125 100.968C48.7707 99.2256 38.0063 89.8963 34.9308 83.2322C31.8553 76.5682 31.9576 73.903 30.0099 72.1604C28.0623 70.4179 25.1913 69.8025 22.3209 73.1854C19.4506 76.5682 17.8096 82.2073 19.0397 86.0004Z" fill="#696969"/>
<path d="M39.605 67.8642C39.723 67.7033 39.8688 67.5582 39.9809 67.3953C40.4835 66.6652 39.9328 65.8374 39.3055 65.41C38.8795 65.1198 38.8162 64.889 38.9204 64.3568C39.0028 63.936 39.2416 63.657 39.1604 63.2184C39.0932 62.8523 38.9329 62.3293 38.6466 62.0912C38.3538 61.8472 37.9225 61.867 37.5848 61.7232C36.7472 61.3664 37.5254 60.6989 37.1679 60.073C36.6324 59.1358 35.1016 59.3607 34.1908 59.2222C34.1973 59.2235 34.202 59.2215 34.2033 59.2149C33.4211 58.9036 33.2845 58.0818 32.2814 58.2487C31.8078 58.3272 31.4794 58.6246 31.0843 58.8574C30.399 59.2618 29.8219 58.7064 29.1584 58.9557C28.4085 59.238 27.8103 59.914 27.5992 60.6864C27.3057 61.7614 26.6831 61.4468 25.8356 61.8327C25.3858 62.0378 24.8258 62.1809 24.9195 62.8108C24.9696 63.1471 25.2664 63.436 25.2902 63.7691C25.3198 64.1945 24.9175 64.4359 24.6807 64.7525C24.4262 65.0935 24.26 65.5908 24.4321 65.9997C24.6174 66.4416 25.1365 66.6586 25.1609 67.1968C25.1945 67.9467 24.1399 68.5614 24.5699 69.3805C24.8542 69.922 25.4702 69.922 25.8798 70.2683C26.1548 70.5011 26.1159 70.8487 26.0843 71.16C25.9979 72.0134 26.3942 72.7706 27.3948 72.5734C28.1236 72.4296 28.6558 72.3472 29.1736 72.9744C29.6254 73.5218 30.0692 73.7929 30.833 73.7283C31.3184 73.6867 31.7682 73.4855 32.2326 73.3556C32.6679 73.2336 32.8017 73.3061 33.1922 73.4268C34.016 73.6814 34.4928 72.8959 35.2586 72.9058C35.5527 72.9098 35.746 73.1314 36.0461 73.1815C36.3943 73.2395 36.7749 73.1248 37.073 72.9493C37.4647 72.7185 37.6501 72.4448 37.7833 72.0167C37.8981 71.6474 37.9805 71.5161 38.3373 71.3658C39.2416 70.9839 39.7336 70.5657 39.6742 69.5091C39.6505 69.091 39.353 68.7559 39.3985 68.345C39.4196 68.1577 39.5021 68.0047 39.605 67.8642Z" fill="#2D2D2D"/>
<path d="M72.589 129.537C72.589 130.99 59.0947 132.169 42.4484 132.169C25.8021 132.169 12.3077 130.991 12.3077 129.537C12.3077 128.083 25.8021 126.906 42.4484 126.906C59.0947 126.906 72.589 128.084 72.589 129.537Z" fill="#E4E4E4"/>
<path d="M39.7488 81.1482C39.7488 81.1482 45.4558 87.1626 47.7794 87.7437L44.0543 90.1015L39.0991 87.3334C39.0998 87.3334 37.2544 82.4125 39.7488 81.1482Z" fill="#CACACA"/>
<path d="M39.7489 81.1483L39.7008 81.1938C39.7014 81.1944 41.1287 82.6989 42.8481 84.2765C43.7075 85.0653 44.6401 85.8733 45.5048 86.5209C45.9375 86.8448 46.3523 87.1284 46.7342 87.3506C47.1161 87.5722 47.4636 87.7325 47.7637 87.8077L47.7796 87.7437L47.7446 87.6883L44.0531 90.0251L39.1323 87.2761L39.0999 87.3335L39.1619 87.3104C39.1619 87.3104 39.1593 87.3038 39.1547 87.2913C39.0835 87.0967 38.5083 85.461 38.509 83.8999C38.509 83.3373 38.5835 82.7853 38.7801 82.3143C38.9766 81.8434 39.2919 81.455 39.7793 81.207L39.7489 81.1483L39.7008 81.1938L39.7489 81.1483L39.7193 81.0896C39.2008 81.3521 38.8625 81.7702 38.658 82.2636C38.4529 82.7569 38.3771 83.3254 38.3771 83.8999C38.3777 85.5982 39.0373 87.3533 39.0386 87.3572L39.0472 87.3797L44.0577 90.1788L47.9458 87.7173L47.7961 87.6798C47.5151 87.6098 47.1761 87.4548 46.8008 87.2365C45.4863 86.4728 43.7319 84.9374 42.3106 83.5952C41.5996 82.9238 40.9711 82.3005 40.5206 81.8454C40.295 81.6179 40.1143 81.4319 39.9897 81.3033C39.9277 81.2386 39.8795 81.1885 39.8465 81.1549C39.8142 81.1206 39.7971 81.1028 39.7971 81.1028L39.7634 81.0671L39.7199 81.0896L39.7489 81.1483Z" fill="#696969"/>
<path d="M42.7728 94.0481C42.7728 94.0481 51.8798 92.6301 57.4847 95.1588C63.0888 97.6875 61.5857 101.925 59.8082 105.547C58.0308 109.17 56.3911 110.537 56.3911 110.537L52.974 109.102C52.974 109.102 54.2041 102.951 56.2546 99.8746C56.2546 99.8746 48.2583 104.112 43.9521 103.907C39.6465 103.702 39.7145 95.637 39.7145 95.637L42.7728 94.0481Z" fill="#2D2D2D"/>
<path d="M29.694 74.6047C29.694 74.6047 27.344 75.8512 25.5672 76.5345C23.7904 77.2178 23.2436 79.8494 24.2686 81.7628C25.2935 83.6768 27.8565 88.5634 28.95 91.468C30.0436 94.3727 30.6761 96.7648 30.6761 96.7648C30.6761 96.7648 36.639 97.9098 39.9539 96.7134C43.2688 95.5176 42.7735 94.0482 42.7735 94.0482C42.7735 94.0482 40.6379 86.5471 40.3299 84.5309C40.3299 84.5309 41.2526 82.4461 40.5007 80.6013C39.7488 78.7559 37.8012 78.004 36.8441 76.8762C35.8871 75.749 32.1798 74.2809 29.694 74.6047Z" fill="white"/>
<path d="M36.9477 66.8379C36.8698 67.8628 36.7795 68.8924 36.9186 70.3236C37.0294 71.4923 36.4675 72.419 34.8437 73.7315C34.8437 73.7315 34.2488 73.7849 33.5767 73.5877C33.5642 73.5877 33.5523 73.5837 33.5398 73.5798L33.6915 74.7036L33.7245 74.9417L33.7449 75.1139C33.7449 75.1139 33.7693 75.8354 32.9244 76.0405C32.0756 76.2456 30.3331 75.4252 29.6933 74.6053C29.6933 74.6053 29.7955 71.5299 29.5376 70.3242C29.5376 70.3242 28.7462 69.0163 28.3076 67.2244C27.873 65.4284 29.2178 63.6813 30.4689 63.0376C31.724 62.3978 35.5131 62.3773 36.6654 64.9938C36.6647 64.9925 37.0261 65.8123 36.9477 66.8379Z" fill="#CACACA"/>
<path d="M36.9477 66.838L36.8818 66.8327C36.8336 67.4685 36.7802 68.1083 36.7802 68.8463C36.7802 69.2975 36.8 69.7849 36.8534 70.3297C36.862 70.422 36.8666 70.5124 36.8666 70.6014C36.866 71.1099 36.7228 71.5749 36.3937 72.0682C36.0639 72.5609 35.5469 73.0793 34.8029 73.6802L34.8444 73.7316L34.8385 73.6657H34.8359C34.8214 73.667 34.7534 73.6716 34.6466 73.6716C34.421 73.6716 34.0233 73.6492 33.5959 73.5239L33.5867 73.5212H33.5774V73.5278L33.5781 73.5212H33.5774V73.5278L33.5781 73.5212L33.5742 73.5206L33.5616 73.5166L33.4614 73.483L33.6276 74.711L33.6605 74.9491L33.7258 74.9399L33.6605 74.9478L33.681 75.12L33.7463 75.112L33.6803 75.1134V75.114V75.118C33.6803 75.147 33.6751 75.3185 33.5774 75.5012C33.5286 75.5928 33.4568 75.6872 33.3506 75.7709C33.2437 75.8547 33.1019 75.9279 32.9106 75.9741C32.8275 75.9945 32.7326 76.0044 32.6297 76.0037C32.1931 76.0044 31.6074 75.8244 31.0659 75.552C30.5237 75.2802 30.0225 74.9162 29.7468 74.562L29.6947 74.6029L29.7606 74.6048C29.7606 74.6042 29.7804 74.0014 29.7804 73.2244C29.7804 72.735 29.7725 72.1764 29.7461 71.6554C29.7198 71.1337 29.6762 70.6509 29.603 70.3079L29.6004 70.2973L29.5944 70.2881C29.5944 70.2881 29.5918 70.2835 29.5859 70.2736C29.4995 70.1265 28.7806 68.8767 28.3716 67.206C28.3156 66.9759 28.2898 66.7463 28.2898 66.5195C28.2898 65.7696 28.5735 65.0507 28.9929 64.4491C29.4117 63.8483 29.9664 63.3668 30.4987 63.0931C30.7005 62.9902 30.9762 62.9018 31.2987 62.8398C31.6212 62.7779 31.9919 62.7422 32.3843 62.7422C33.1659 62.7422 34.0352 62.8847 34.8009 63.2402C35.5666 63.5963 36.2282 64.1636 36.6041 65.017L36.6048 65.0183C36.6199 65.0533 36.893 65.7003 36.8923 66.5425C36.8923 66.6362 36.889 66.7325 36.8818 66.8308L36.9477 66.838L37.0137 66.8433C37.0216 66.7417 37.0249 66.6421 37.0249 66.5452C37.0249 65.6469 36.7274 64.9715 36.7255 64.9662C36.335 64.0785 35.6445 63.4882 34.857 63.1228C34.0688 62.7567 33.1817 62.6123 32.3843 62.6123C31.984 62.6123 31.6061 62.6486 31.2743 62.7126C30.9426 62.7765 30.657 62.8669 30.4393 62.9784C29.8846 63.2639 29.3174 63.7579 28.8854 64.3766C28.4541 64.9946 28.1593 65.7386 28.1586 66.5221C28.1586 66.7589 28.1856 66.999 28.2437 67.2397C28.6849 69.0422 29.4797 70.3547 29.4817 70.358L29.5384 70.3237L29.4737 70.3376C29.5443 70.6667 29.5885 71.1462 29.6142 71.6639C29.6399 72.1817 29.6479 72.7383 29.6479 73.2264C29.6479 73.6135 29.6426 73.9578 29.638 74.2052C29.6353 74.3285 29.6327 74.4281 29.6314 74.4967C29.6294 74.5653 29.6281 74.6022 29.6281 74.6022L29.6274 74.626L29.6419 74.6451C29.9381 75.0243 30.4505 75.3937 31.0059 75.672C31.5612 75.9503 32.1574 76.137 32.629 76.1376C32.7405 76.1376 32.8453 76.1271 32.941 76.104C33.1487 76.0539 33.309 75.9721 33.431 75.8765C33.6144 75.7327 33.71 75.5572 33.7588 75.4121C33.8076 75.267 33.8116 75.1516 33.8116 75.1193V75.1114V75.1081L33.7905 74.932L33.7575 74.6939L33.6058 73.5707L33.5405 73.5793L33.5194 73.6419C33.5319 73.6459 33.5497 73.6531 33.5774 73.6538V73.5878L33.559 73.6511C34.0035 73.7811 34.4131 73.8042 34.6472 73.8042C34.7739 73.8042 34.8491 73.7976 34.851 73.7976L34.8708 73.7956L34.8866 73.7831C35.6359 73.1776 36.1629 72.6519 36.5045 72.1421C36.8462 71.6323 37.0005 71.1363 36.9998 70.6021C36.9998 70.5084 36.9952 70.4141 36.986 70.3185C36.9332 69.7776 36.9134 69.2948 36.9134 68.8477C36.9134 68.1162 36.9662 67.4804 37.015 66.844L36.9477 66.838Z" fill="#696969"/>
<path d="M29.8345 68.746C29.8345 68.746 29.8418 68.754 29.8556 68.7691C29.9024 68.8212 30.0205 68.9564 30.126 69.1108C30.2322 69.2644 30.3246 69.4386 30.3239 69.5619C30.3239 69.581 30.3219 69.5988 30.3173 69.6153C30.2876 69.7248 30.2263 69.7875 30.1696 69.8501C30.1128 69.9121 30.0601 69.9761 30.0601 70.0823C30.0601 70.1331 30.072 70.1931 30.1003 70.2663C30.2415 70.6389 30.3318 70.7933 30.3325 70.7939C30.3371 70.8018 30.347 70.8045 30.3549 70.7999C30.3628 70.7953 30.3655 70.7854 30.3608 70.7774C30.3608 70.7774 30.3556 70.7682 30.345 70.7484C30.3133 70.6884 30.2368 70.5328 30.1313 70.2544C30.1043 70.1832 30.0937 70.1271 30.0937 70.0816C30.0937 69.988 30.1379 69.9345 30.1946 69.8719C30.2507 69.8099 30.318 69.7413 30.3496 69.6239C30.3549 69.6041 30.3575 69.5837 30.3575 69.5619C30.3569 69.4043 30.2316 69.1978 30.1076 69.027C29.9836 68.8569 29.8596 68.7243 29.8589 68.7243C29.853 68.7177 29.8424 68.717 29.8358 68.7236C29.8286 68.7289 29.8279 68.7395 29.8345 68.746Z" fill="#414141"/>
<path d="M36.5616 67.2225C36.5616 67.2225 36.0747 67.0688 35.4209 67.5299C35.4209 67.5299 35.5363 67.0041 35.921 66.9401C36.3056 66.8768 36.5616 67.2225 36.5616 67.2225Z" fill="#414141"/>
<path d="M33.9347 67.6889C33.9347 67.6889 33.5857 67.2653 33.0751 67.3399C32.5645 67.4144 32.1786 67.6137 32.1786 67.6137C32.1786 67.6137 32.4029 67.1156 32.9009 67.0034C33.3997 66.8919 33.7982 67.1783 33.9347 67.6889Z" fill="#414141"/>
<path d="M35.5943 68.5165C35.5765 68.7745 35.6445 68.9889 35.7467 68.9962C35.849 69.0034 35.9466 68.8002 35.9651 68.5423C35.9829 68.2843 35.915 68.0699 35.8127 68.0627C35.7104 68.0561 35.6121 68.2593 35.5943 68.5165Z" fill="#414141"/>
<path d="M33.3519 68.8247C33.3341 69.0826 33.402 69.297 33.5043 69.3043C33.6065 69.3115 33.7042 69.1084 33.7226 68.8504C33.7404 68.5925 33.6725 68.3781 33.5702 68.3708C33.4673 68.3635 33.3697 68.5667 33.3519 68.8247Z" fill="#414141"/>
<path d="M34.9751 68.8714C34.9751 68.8714 35.0121 68.936 35.0681 69.0376C35.1519 69.19 35.2773 69.4269 35.3822 69.6551C35.487 69.8827 35.5695 70.1051 35.5695 70.2199C35.5695 70.2535 35.5623 70.2766 35.551 70.2871C35.5134 70.3247 35.4395 70.3663 35.3511 70.4059C35.2185 70.4646 35.0523 70.52 34.919 70.5596C34.8524 70.5794 34.7944 70.5959 34.7528 70.6071C34.7112 70.6183 34.6868 70.6249 34.6868 70.6249C34.6782 70.6269 34.673 70.6361 34.6749 70.6447C34.6769 70.6533 34.6862 70.6586 34.6947 70.6566C34.6947 70.6566 34.8722 70.6117 35.0708 70.5464C35.1697 70.5134 35.274 70.4758 35.3643 70.4362C35.4547 70.396 35.5306 70.3544 35.5741 70.3109C35.5952 70.2898 35.6025 70.2581 35.6025 70.2199C35.6025 70.1341 35.5642 70.0087 35.5082 69.8649C35.3399 69.4361 35.0041 68.8549 35.0041 68.8549C34.9995 68.847 34.9896 68.8443 34.9817 68.849C34.9738 68.8529 34.9705 68.8635 34.9751 68.8714Z" fill="#414141"/>
<path d="M34.7826 71.2729C34.7826 71.2729 34.7642 71.2755 34.7299 71.2782C34.6955 71.2808 34.6467 71.2834 34.5867 71.2834C34.3565 71.2834 33.9646 71.2432 33.6321 71.0103C33.6248 71.005 33.6143 71.007 33.609 71.0143C33.6037 71.0215 33.6057 71.0321 33.613 71.0374C33.954 71.2755 34.3525 71.3164 34.586 71.3164C34.7087 71.3164 34.7859 71.3052 34.7866 71.3052C34.7958 71.3039 34.8018 71.2953 34.8004 71.2867C34.7998 71.2782 34.7912 71.2716 34.7826 71.2729Z" fill="#414141"/>
<path d="M31.5473 65.8046C31.5473 65.8046 31.8289 66.3428 31.6753 67.5471C31.5216 68.7514 31.4444 68.3161 31.3422 68.8543C31.24 69.3925 31.5216 69.8027 31.1628 70.238C30.804 70.674 31.3422 69.0845 30.2144 68.1361C29.0866 67.1876 29.3688 69.9815 29.6505 70.5197C29.9321 71.0579 30.3938 71.263 30.3938 71.263L29.6762 72.1085C29.6762 72.1085 26.2162 70.4682 26.3956 67.0082C26.575 63.5483 28.5998 62.5998 28.5998 62.5998C28.5998 62.5998 30.2915 60.2162 34.5713 61.3183C38.8518 62.4204 38.3268 65.9272 38.2879 66.4443C38.1857 67.803 36.8527 67.8281 36.8527 67.8281C36.8527 67.8281 36.9807 66.3929 36.058 65.5467C36.058 65.5467 35.8014 66.1363 34.9044 66.3672C34.0074 66.598 34.4434 65.7775 34.6228 65.4187C34.6228 65.4187 34.1103 66.1106 33.2898 66.1106C32.47 66.1119 31.5473 65.8046 31.5473 65.8046Z" fill="#2D2D2D"/>
<path d="M33.7244 74.9412C33.3346 74.839 32.7318 74.6088 31.9819 74.1088C30.6001 73.1861 30.8297 71.4436 30.8297 71.4436C31.42 72.8544 33.2905 73.4691 33.2905 73.4691L33.5774 73.5878C33.5648 73.5878 33.553 73.5838 33.5404 73.5799L33.6921 74.7038L33.7244 74.9412Z" fill="#414141"/>
<path d="M25.2593 77.2179C27.0638 77.0319 28.4376 78.9947 30.1801 82.549C31.9227 86.1033 33.7681 91.5367 33.7681 91.5367C33.7681 91.5367 42.0038 90.614 44.6691 88.4955C44.6691 88.4955 45.2501 86.3428 45.6604 85.8303C46.0706 85.3178 46.8561 84.9419 47.3693 84.6682C47.8817 84.3945 48.2234 84.1214 48.2234 84.1214L46.2071 89.4868C46.2071 89.4868 44.8399 90.7512 44.0887 91.4687C43.3368 92.1863 35.2718 96.4239 32.0599 95.6034C28.8479 94.783 24.849 86.3428 24.4051 84.2922C23.9613 82.2417 22.9357 77.4573 25.2593 77.2179Z" fill="#CACACA"/>
<path d="M25.2592 77.2179L25.2658 77.2832C25.3423 77.2753 25.4175 77.2713 25.492 77.2713C25.9022 77.2713 26.2894 77.3887 26.6693 77.6189C27.2391 77.9638 27.7912 78.5653 28.3551 79.401C28.919 80.236 29.4961 81.3045 30.1207 82.5774C30.9906 84.3509 31.887 86.5967 32.5656 88.3979C32.9053 89.2988 33.1902 90.0883 33.3901 90.6529C33.4903 90.9352 33.5688 91.1614 33.6229 91.3164C33.677 91.472 33.7053 91.5565 33.7053 91.5565L33.7225 91.6066L33.7752 91.6006C33.7766 91.6006 35.837 91.3698 38.2325 90.8732C39.4302 90.6252 40.7117 90.3106 41.8626 89.9247C43.0135 89.5389 44.0332 89.0825 44.7105 88.545L44.7277 88.5318L44.7336 88.5107C44.7336 88.5107 44.7428 88.477 44.7593 88.4177C44.8174 88.2086 44.9691 87.679 45.1504 87.1461C45.2408 86.8796 45.3391 86.6131 45.436 86.3856C45.533 86.1587 45.6306 85.9707 45.7124 85.8685C45.9096 85.6218 46.2031 85.4029 46.5111 85.2129C46.8198 85.023 47.1429 84.8607 47.4002 84.7235C47.9179 84.4472 48.2622 84.1715 48.2648 84.1702L48.2239 84.1187L48.1619 84.0957L46.1457 89.4611L46.2077 89.4842L46.1629 89.436C46.1629 89.436 44.7956 90.7004 44.0431 91.4186C44.0042 91.4555 43.9395 91.507 43.8531 91.5677C43.5273 91.7978 42.8948 92.1692 42.0796 92.5952C40.8561 93.2343 39.2191 93.9961 37.5716 94.5976C35.9247 95.1998 34.2659 95.6404 33.0075 95.6397C32.6639 95.6397 32.3506 95.6067 32.0763 95.5368C31.296 95.339 30.4491 94.6662 29.6208 93.7316C28.3769 92.3308 27.1699 90.3468 26.2346 88.5225C25.767 87.6104 25.3667 86.7385 25.0626 85.9991C24.7586 85.2598 24.5515 84.6523 24.4697 84.2751C24.2408 83.2198 23.859 81.441 23.8596 79.9392C23.8596 79.2328 23.9447 78.5884 24.1643 78.1149C24.2738 77.8774 24.4163 77.6835 24.5963 77.5417C24.777 77.3999 24.996 77.3089 25.2671 77.2812L25.2592 77.2179L25.2526 77.1526C24.9597 77.1823 24.7144 77.2832 24.5139 77.4408C24.2138 77.6769 24.0179 78.0364 23.8966 78.4677C23.7752 78.8991 23.7271 79.405 23.7271 79.9425C23.7271 81.4654 24.1116 83.2495 24.3404 84.306C24.4539 84.8284 24.7876 85.7406 25.2763 86.8361C26.0091 88.4783 27.0888 90.5256 28.2891 92.2424C28.8893 93.1011 29.5192 93.8767 30.153 94.4783C30.7868 95.0798 31.424 95.5085 32.0433 95.6668C32.3315 95.7406 32.6553 95.7736 33.0069 95.7736C33.923 95.7736 35.0297 95.548 36.1885 95.2005C37.9264 94.6794 39.7798 93.8833 41.2644 93.1565C42.007 92.7931 42.6567 92.4462 43.154 92.1593C43.4027 92.0162 43.613 91.8875 43.7786 91.7787C43.9441 91.6699 44.0635 91.5822 44.1341 91.5156C44.5094 91.1574 45.039 90.6614 45.4749 90.2558C45.6926 90.0527 45.8872 89.8726 46.027 89.7427C46.0969 89.6781 46.153 89.626 46.1919 89.5897C46.2308 89.5534 46.2519 89.5343 46.2519 89.5343L46.2631 89.5237L48.369 83.9196L48.1817 84.0693L48.1784 84.0719C48.1408 84.1016 47.8137 84.3555 47.3382 84.6094C47.0829 84.7453 46.7571 84.9089 46.4418 85.1028C46.1266 85.2973 45.8219 85.5223 45.6088 85.7881C45.5528 85.858 45.4974 85.951 45.4413 86.0611C45.2448 86.4463 45.037 87.0484 44.8767 87.5563C44.7171 88.0642 44.6057 88.477 44.6057 88.4777L44.6696 88.4948L44.6287 88.4434C43.9732 88.9644 42.964 89.4189 41.8211 89.8014C40.1062 90.3765 38.09 90.794 36.5038 91.0677C35.7104 91.2043 35.0244 91.3052 34.537 91.3718C34.293 91.4048 34.0991 91.4298 33.9659 91.4463C33.8992 91.4542 33.8478 91.4608 33.8135 91.4648C33.7785 91.4687 33.7607 91.4707 33.7607 91.4707L33.768 91.536L33.8306 91.5149C33.83 91.5136 31.9852 86.0802 30.2394 82.5193C29.4051 80.8177 28.6545 79.4788 27.896 78.5601C27.5168 78.101 27.1349 77.7462 26.7379 77.5055C26.3408 77.2647 25.928 77.1387 25.492 77.1394C25.4129 77.1394 25.333 77.1434 25.2526 77.1519L25.2592 77.2179Z" fill="#696969"/>
<path d="M30.676 96.7656C30.676 96.7656 28.7112 103.634 33.6321 107.12C38.553 110.606 51.2658 102.814 55.7764 97.4832C55.7764 97.4832 62.6792 106.983 68.5571 109.854L71.3595 107.256C71.3595 107.256 63.4311 95.6378 59.2621 92.9719C55.0931 90.306 41.8336 95.5006 41.8336 95.5006C41.8336 95.5006 34.1446 97.346 30.676 96.7656Z" fill="#696969"/>
<path d="M80.7226 108.316C80.4489 108.247 80.2444 108.521 79.9364 108.589C79.6291 108.657 75.8017 109.956 74.1951 110.298L71.359 107.256L68.5566 109.854L71.4454 112.168C71.7442 112.718 72.378 113.773 73.2044 114.501C74.3666 115.526 75.2893 115.083 75.8017 114.707C76.3142 114.331 77.2369 113.306 78.1596 112.587C79.0823 111.87 80.381 110.537 80.7226 109.649C81.0643 108.76 80.9957 108.384 80.7226 108.316Z" fill="#CACACA"/>
<path d="M80.7224 108.316L80.7383 108.252C80.7033 108.243 80.6683 108.238 80.6347 108.239C80.5661 108.239 80.5021 108.256 80.4421 108.279C80.3518 108.316 80.2693 108.368 80.1849 108.414C80.1005 108.462 80.0154 108.504 79.9224 108.525C79.9 108.53 79.8663 108.539 79.8208 108.552C79.4785 108.653 78.445 108.994 77.308 109.348C76.1709 109.704 74.9303 110.074 74.1824 110.233L74.1962 110.297L74.2444 110.253L71.3628 107.163L68.4562 109.858L71.4044 112.219L71.4459 112.168L71.3879 112.2C71.6886 112.753 72.3244 113.812 73.1607 114.551C73.7029 115.03 74.2035 115.199 74.6368 115.199C75.1473 115.199 75.5575 114.967 75.8405 114.76C76.1036 114.567 76.4618 114.216 76.872 113.823C77.2816 113.431 77.7419 112.996 78.1997 112.64C78.6647 112.279 79.222 111.764 79.7074 111.227C80.1928 110.689 80.6063 110.132 80.7838 109.673C80.9467 109.249 81.0192 108.938 81.0192 108.711C81.0192 108.585 80.9961 108.482 80.948 108.404C80.8998 108.325 80.824 108.273 80.7383 108.252L80.7224 108.316L80.7066 108.38C80.7646 108.395 80.8049 108.422 80.8359 108.472C80.8669 108.522 80.888 108.599 80.888 108.71C80.8886 108.908 80.8214 109.209 80.6611 109.624C80.4962 110.053 80.0899 110.607 79.6098 111.137C79.1296 111.668 78.5763 112.179 78.1192 112.535C77.6542 112.896 77.1919 113.333 76.781 113.726C76.3714 114.12 76.012 114.47 75.7626 114.652C75.4909 114.852 75.1064 115.067 74.6368 115.066C74.2384 115.065 73.7728 114.914 73.2478 114.451C72.4326 113.732 71.7994 112.682 71.5033 112.136L71.4967 112.124L68.6574 109.849L71.3556 107.349L74.1725 110.369L74.2088 110.361C75.0174 110.189 76.3754 109.779 77.5724 109.403C78.1707 109.215 78.7286 109.036 79.1554 108.899C79.369 108.831 79.5498 108.773 79.6869 108.73C79.7555 108.709 79.8129 108.692 79.8578 108.678C79.9026 108.665 79.9349 108.656 79.9508 108.653C80.1011 108.619 80.2238 108.543 80.334 108.48C80.3887 108.449 80.4408 108.42 80.4909 108.401C80.5411 108.381 80.5879 108.37 80.6347 108.37C80.6578 108.37 80.6815 108.372 80.7066 108.379L80.7224 108.316Z" fill="#696969"/>
<path d="M53.3553 108.948C53.3553 108.948 52.7729 111.146 52.424 111.726C52.0744 112.306 50.7164 113.799 50.9492 114.67C51.182 115.54 52.1562 115.888 53.7088 116.261C55.2613 116.634 55.4896 117.528 56.4598 117.901C57.43 118.275 58.5459 118.434 58.8176 118.226C59.0894 118.019 59.5009 118.192 59.9969 117.645C60.516 117.072 59.4159 116.62 58.8348 116.124C58.4588 115.803 57.4702 114.835 56.3443 113.84C55.2185 112.845 56.3912 110.195 56.3912 110.195L53.3553 108.948Z" fill="#CACACA"/>
<path d="M53.3553 108.948L53.2913 108.931C53.2913 108.931 53.282 108.965 53.2656 109.026C53.2075 109.24 53.0578 109.782 52.8843 110.335C52.7979 110.612 52.7049 110.89 52.6159 111.13C52.5269 111.37 52.4391 111.572 52.3673 111.692C52.2894 111.821 52.1562 112.003 51.9999 112.215C51.7658 112.533 51.4821 112.919 51.2553 113.311C51.029 113.703 50.8569 114.101 50.8562 114.455C50.8562 114.534 50.8655 114.612 50.8853 114.687C50.9459 114.914 51.0567 115.11 51.2117 115.278C51.4445 115.53 51.7743 115.72 52.1905 115.885C52.6067 116.048 53.1099 116.185 53.6929 116.325C54.458 116.51 54.89 116.818 55.2594 117.131C55.444 117.288 55.6122 117.447 55.7976 117.592C55.9829 117.736 56.1854 117.866 56.4353 117.962C57.1199 118.225 57.8712 118.382 58.3671 118.383C58.4747 118.383 58.5703 118.376 58.6527 118.359C58.7345 118.343 58.8038 118.318 58.8572 118.277C58.9152 118.233 58.9818 118.208 59.0623 118.188C59.183 118.157 59.3321 118.139 59.5002 118.075C59.6684 118.011 59.8531 117.9 60.045 117.688C60.1473 117.576 60.198 117.458 60.1974 117.342C60.1974 117.211 60.1361 117.092 60.0464 116.982C59.9111 116.818 59.706 116.667 59.491 116.517C59.276 116.368 59.0504 116.221 58.877 116.073C58.6916 115.914 58.35 115.592 57.9154 115.185C57.4807 114.779 56.9511 114.288 56.3878 113.789C56.215 113.637 56.0996 113.443 56.0258 113.221C55.9519 113 55.9216 112.752 55.9216 112.495C55.9216 111.96 56.0535 111.389 56.186 110.954C56.2526 110.737 56.3186 110.553 56.3687 110.424C56.3938 110.359 56.4142 110.308 56.4287 110.273C56.436 110.256 56.4419 110.243 56.4452 110.234C56.4492 110.225 56.4512 110.22 56.4512 110.22L56.4789 110.158L53.3111 108.856L53.2919 108.929L53.3553 108.948L53.3302 109.009L56.3661 110.256L56.3911 110.195L56.3311 110.169C56.3305 110.171 56.1959 110.475 56.0607 110.918C55.9262 111.36 55.7903 111.94 55.7903 112.497C55.7903 112.764 55.8213 113.026 55.9011 113.266C55.9802 113.504 56.1089 113.721 56.3014 113.891C56.8634 114.387 57.3917 114.878 57.8263 115.284C58.261 115.691 58.6019 116.013 58.7926 116.175C59.0366 116.383 59.3617 116.578 59.6223 116.775C59.7529 116.873 59.867 116.972 59.9454 117.067C60.0246 117.164 60.0668 117.255 60.0661 117.343C60.0661 117.421 60.0345 117.504 59.9474 117.601C59.7073 117.865 59.4983 117.949 59.3063 117.999C59.2107 118.024 59.119 118.039 59.03 118.061C58.9416 118.084 58.8552 118.115 58.7767 118.174C58.7484 118.196 58.6969 118.217 58.6263 118.231C58.5564 118.245 58.4681 118.252 58.3665 118.252C57.8969 118.253 57.1523 118.098 56.4822 117.84C56.2474 117.75 56.0574 117.628 55.878 117.489C55.6096 117.28 55.3669 117.028 55.043 116.793C54.7192 116.557 54.3129 116.339 53.7226 116.197C52.9477 116.011 52.3198 115.831 51.8627 115.594C51.6338 115.475 51.4485 115.342 51.3067 115.189C51.1649 115.035 51.0666 114.86 51.0106 114.653C50.9941 114.591 50.9862 114.525 50.9862 114.455C50.9862 114.249 51.0561 114.009 51.1695 113.759C51.3397 113.383 51.6048 112.985 51.8587 112.63C52.1127 112.276 52.3534 111.968 52.4781 111.76C52.5704 111.607 52.672 111.359 52.7762 111.07C53.0888 110.203 53.4159 108.967 53.4166 108.965L53.3553 108.948L53.3302 109.009L53.3553 108.948Z" fill="#696969"/>
<path d="M58.4239 77.832L55.1967 87.1613L54.549 89.0146C54.5042 89.1379 54.4013 89.2322 54.274 89.2645L46.0356 91.418C45.8674 91.4628 45.7117 91.3936 45.6253 91.2742C45.5475 91.1759 45.5185 91.0407 45.564 90.9048L46.0026 89.6583L50.0173 77.8847C50.0707 77.7291 50.2099 77.6222 50.3741 77.6183L57.3824 77.3353L58.0347 77.3109C58.3131 77.2991 58.5142 77.5695 58.4239 77.832Z" fill="#979797"/>
<path d="M58.4238 77.8318L55.1966 87.1611L54.5489 89.0145C54.5041 89.1378 54.4012 89.2321 54.2739 89.2644L46.0355 91.4179C45.8673 91.4627 45.7117 91.3934 45.6253 91.2741C47.1218 90.0394 51.2149 86.5174 53.9659 82.7527C55.9261 80.071 56.9062 78.3278 57.3817 77.3359L58.034 77.3115C58.313 77.2989 58.5141 77.5693 58.4238 77.8318Z" fill="#7D7D7D"/>
<path d="M56.7546 83.2388C56.7506 83.2322 56.7447 83.227 56.7407 83.2204C56.8377 83.1221 56.965 82.9532 56.9142 82.7778C56.8357 82.5054 56.4334 82.3333 55.8662 82.3478C55.299 82.3629 55.0022 82.5542 55.1209 82.6716C55.2396 82.789 55.5555 82.9361 55.9071 82.8873L55.9869 82.9836C55.878 82.9928 55.7626 83.01 55.64 83.0403C55.0892 83.1748 54.8393 83.4248 54.9797 83.5145C55.1209 83.6042 55.4606 83.6814 55.7936 83.5594L55.8721 83.6207C55.7877 83.6313 55.7 83.6458 55.6083 83.6682C55.0576 83.8027 54.8076 84.0527 54.9481 84.1424C55.0892 84.2321 55.4289 84.3093 55.762 84.1873L55.946 84.3324C55.632 84.4319 55.2838 84.5797 55.3451 84.6938C55.4348 84.8606 55.9473 84.8989 55.9473 84.8989L55.7296 85.5782C55.7296 85.5782 56.409 85.2577 56.6392 84.9121C56.7724 84.7129 56.7322 84.5032 56.6253 84.3686C56.7018 84.2578 56.8179 84.0448 56.7223 83.8674C56.7018 83.8298 56.6728 83.7968 56.6392 83.7665C56.7124 83.6662 56.8575 83.4308 56.7546 83.2388Z" fill="#CACACA"/>
<path d="M56.7545 83.2388L56.8125 83.2072C56.8066 83.1966 56.8013 83.19 56.798 83.1867L56.7954 83.1834L56.7947 83.1841L56.7954 83.1834L56.7947 83.1841L56.7954 83.1834L56.7769 83.1966L56.7961 83.1848L56.7954 83.1834L56.7769 83.1966L56.7961 83.1848L56.74 83.2197L56.7868 83.2659C56.8304 83.2217 56.8798 83.1643 56.9201 83.0957C56.9596 83.0271 56.9906 82.9473 56.9906 82.8589C56.9906 82.826 56.986 82.7923 56.9768 82.7587C56.9544 82.6809 56.9102 82.6116 56.8495 82.5523C56.7578 82.4632 56.6305 82.3959 56.4762 82.3504C56.3212 82.3049 56.1385 82.2805 55.934 82.2805C55.9109 82.2805 55.8879 82.2805 55.8648 82.2812C55.6168 82.2878 55.4176 82.3267 55.2758 82.3814C55.2046 82.4091 55.1478 82.4401 55.105 82.4764C55.0839 82.4949 55.0654 82.5147 55.0522 82.5371C55.039 82.5595 55.0298 82.5865 55.0298 82.6143C55.0291 82.6532 55.0483 82.6908 55.0753 82.7171C55.136 82.7765 55.2303 82.8359 55.3497 82.8827C55.4684 82.9289 55.6122 82.9618 55.7685 82.9618C55.8173 82.9618 55.8668 82.9585 55.9169 82.9519L55.9077 82.8866L55.8569 82.9289L55.9367 83.0252L55.9875 82.9829L55.9822 82.917C55.8701 82.9262 55.7513 82.944 55.6247 82.975C55.3945 83.0311 55.2138 83.1076 55.0872 83.1867C55.0239 83.2263 54.9737 83.2672 54.9375 83.3094C54.919 83.3305 54.9045 83.3523 54.8933 83.3754C54.8827 83.3985 54.8755 83.4229 54.8755 83.4492C54.8755 83.473 54.882 83.4974 54.8946 83.5185C54.9071 83.5396 54.9249 83.5561 54.9447 83.5693C54.9968 83.6023 55.0667 83.6313 55.1492 83.6524C55.2316 83.6735 55.3279 83.6873 55.4308 83.6873C55.5521 83.6873 55.6847 83.6682 55.816 83.6201L55.7935 83.5581L55.7527 83.6102L55.8311 83.6715L55.872 83.6194L55.8641 83.5541C55.7777 83.5647 55.688 83.5792 55.5924 83.6029C55.3622 83.659 55.1815 83.7355 55.0549 83.8146C54.9915 83.8542 54.9414 83.8951 54.9051 83.9373C54.8867 83.9584 54.8722 83.9802 54.8609 84.0033C54.8504 84.0264 54.8431 84.0508 54.8431 84.0771C54.8431 84.1009 54.8497 84.1253 54.8623 84.1464C54.8748 84.1675 54.8926 84.184 54.9124 84.1972C54.9645 84.2302 55.0344 84.2592 55.1168 84.2803C55.1993 84.3014 55.2956 84.3152 55.3985 84.3152C55.5198 84.3152 55.6524 84.2961 55.7837 84.248L55.7612 84.186L55.7203 84.2381L55.9043 84.3832L55.9452 84.3311L55.9255 84.2684C55.7784 84.3152 55.6247 84.372 55.5033 84.4326C55.4427 84.4636 55.3899 84.4946 55.349 84.5296C55.3286 84.5474 55.3108 84.5652 55.2962 84.587C55.2824 84.6087 55.2712 84.6351 55.2712 84.6648C55.2712 84.6846 55.2765 84.7057 55.2864 84.7235C55.3035 84.7552 55.3286 84.7809 55.3563 84.8013C55.4051 84.8376 55.4651 84.8633 55.5278 84.8844C55.7164 84.9464 55.9386 84.9623 55.9413 84.9629L55.9459 84.897L55.8832 84.8765L55.6188 85.7003L55.756 85.6357C55.7573 85.635 55.9287 85.5539 56.1312 85.4286C56.3331 85.3026 56.5659 85.1351 56.6925 84.9464C56.7585 84.8475 56.7881 84.7433 56.7875 84.645C56.7875 84.5223 56.7433 84.4109 56.6754 84.3258L56.6239 84.3667L56.678 84.4043C56.7077 84.3614 56.7433 84.3034 56.7717 84.2367C56.8 84.1701 56.8224 84.0936 56.8224 84.0132C56.8224 83.9545 56.8099 83.8925 56.7789 83.8344C56.7532 83.7876 56.7189 83.7493 56.682 83.7164L56.6378 83.7652L56.6912 83.8041C56.7209 83.7638 56.7604 83.7038 56.7941 83.6319C56.8271 83.56 56.8548 83.4756 56.8548 83.3853C56.8548 83.3259 56.8422 83.2646 56.8112 83.2065L56.7545 83.2388L56.6965 83.2698C56.7163 83.3068 56.7242 83.345 56.7242 83.3859C56.7242 83.4479 56.7037 83.5159 56.6754 83.5772C56.647 83.6379 56.6114 83.692 56.5857 83.7269L56.55 83.7751L56.5942 83.8153C56.6246 83.8423 56.6483 83.8694 56.6635 83.8984C56.6833 83.9353 56.6912 83.9736 56.6912 84.0145C56.6912 84.0705 56.6747 84.1306 56.651 84.186C56.6272 84.2414 56.5962 84.2928 56.5698 84.3304L56.5421 84.3706L56.5725 84.4089C56.6233 84.4722 56.6562 84.556 56.6562 84.6457C56.6562 84.7182 56.6358 84.7954 56.583 84.8739C56.4795 85.0308 56.2565 85.1971 56.062 85.3171C55.9644 85.3778 55.8734 85.4279 55.8074 85.4629C55.7744 85.48 55.7474 85.4939 55.7289 85.5031C55.7197 85.5077 55.7124 85.511 55.7078 85.5136L55.7006 85.5169L55.7289 85.5763L55.7916 85.5967L56.0349 84.8376L55.9518 84.8317L55.9466 84.831C55.9202 84.829 55.7942 84.8165 55.6682 84.7868C55.6056 84.7723 55.5423 84.7525 55.4935 84.7294C55.444 84.707 55.4117 84.6786 55.4024 84.6608L55.3945 84.6648H55.4031L55.4024 84.6608L55.3945 84.6648H55.4031H55.3965L55.4031 84.6661V84.6648H55.3965L55.4031 84.6661L55.4044 84.6635C55.4077 84.6549 55.4275 84.6325 55.4611 84.6094C55.5113 84.5738 55.5897 84.5349 55.6788 84.4973C55.7678 84.4603 55.8681 84.4247 55.9657 84.3937L56.0844 84.3561L55.7731 84.1114L55.7388 84.124C55.6234 84.1662 55.5066 84.1827 55.3985 84.1827C55.3068 84.1827 55.2217 84.1708 55.1498 84.1523C55.0779 84.1339 55.0192 84.1088 54.983 84.0857C54.977 84.0818 54.9757 84.0791 54.975 84.0791V84.0771C54.975 84.0752 54.9757 84.0692 54.9803 84.06C54.9882 84.0435 55.0074 84.0178 55.039 83.9901C55.1347 83.905 55.3358 83.8014 55.6234 83.7315C55.7124 83.7098 55.7968 83.6959 55.8799 83.6854L56.0369 83.6656L55.8054 83.4835L55.7711 83.4961C55.6557 83.5383 55.539 83.5548 55.4308 83.5548C55.3391 83.5548 55.254 83.5429 55.1821 83.5244C55.1103 83.506 55.0516 83.4809 55.0153 83.4578C55.0093 83.4539 55.008 83.4512 55.0074 83.4512V83.4492C55.0074 83.4473 55.008 83.4413 55.0126 83.4321C55.0206 83.4156 55.0397 83.3899 55.0713 83.3622C55.167 83.2771 55.3681 83.1736 55.6557 83.1036C55.7751 83.0746 55.8872 83.0575 55.9927 83.0489L56.1187 83.0383L55.9347 82.8161L55.8984 82.8213C55.8542 82.8273 55.8107 82.8299 55.7678 82.8299C55.6306 82.8299 55.502 82.8009 55.3972 82.76C55.2923 82.7191 55.2098 82.6657 55.1676 82.6235C55.1597 82.6149 55.1617 82.6149 55.161 82.6149C55.161 82.6149 55.161 82.6116 55.165 82.605C55.1716 82.5931 55.1927 82.5714 55.2277 82.5503C55.2804 82.518 55.3635 82.485 55.4717 82.4599C55.5798 82.4349 55.7131 82.417 55.8681 82.4131C55.8905 82.4124 55.9123 82.4124 55.934 82.4124C56.1926 82.4124 56.4102 82.454 56.5679 82.5239C56.647 82.5588 56.7103 82.6004 56.7571 82.6466C56.804 82.6927 56.835 82.7422 56.8501 82.7956C56.8561 82.8174 56.8594 82.8385 56.8594 82.8596C56.8594 82.9163 56.8389 82.975 56.8066 83.0298C56.7743 83.0845 56.7314 83.1353 56.6932 83.1742L56.6562 83.2111L56.6839 83.2553C56.6899 83.2646 56.6945 83.2692 56.6965 83.2718L56.6978 83.2731L56.7189 83.2573L56.6958 83.2698L56.6978 83.2731L56.7189 83.2573L56.6958 83.2698L56.7545 83.2388Z" fill="#696969"/>
<path d="M54.3525 84.0852C54.1223 84.847 53.4991 85.333 52.9602 85.1701C52.4214 85.0072 52.1721 84.258 52.4022 83.4956C52.6324 82.7338 53.2557 82.2477 53.7945 82.4106C54.3334 82.5735 54.5827 83.3234 54.3525 84.0852Z" fill="#7D7D7D"/>
<path d="M78.5216 114.719C76.8404 121.981 69.2991 127.016 55.8444 127.931C28.677 129.777 13.7092 128.136 8.37809 115.218C7.17244 112.299 6.70482 108.526 6.77078 104.405C8.82131 105.225 12.6388 107.467 16.7847 113.475C22.9356 122.394 35.3404 126.906 50.3088 124.957C64.8742 123.064 73.7155 120.972 78.5216 114.719Z" fill="#696969"/>
</svg>
